<?xml version="1.0" encoding="UTF-8" standalone="no"?>
<!DOCTYPE svg PUBLIC "-//W3C//DTD SVG 1.1//EN"
 "http://www.w3.org/Graphics/SVG/1.1/DTD/svg11.dtd">
<!-- Generated by graphviz version 2.40.1 (20161225.0304)
 -->
<!-- Title: dependencies Pages: 1 -->
<svg width="3408pt" height="284pt"
 viewBox="0.00 0.00 3408.00 284.00" xmlns="http://www.w3.org/2000/svg" xmlns:xlink="http://www.w3.org/1999/xlink">
<g id="graph0" class="graph" transform="scale(1 1) rotate(0) translate(4 280)">
<title>dependencies</title>
<polygon fill="#ffffff" stroke="transparent" points="-4,4 -4,-280 3404,-280 3404,4 -4,4"/>
<text text-anchor="start" x="1679.0091" y="-42.4" font-family="sans-serif" font-weight="bold" font-size="14.00" fill="#000000">Legend</text>
<polygon fill="#ffffb3" stroke="transparent" points="1466,-10 1466,-30 1486,-30 1486,-10 1466,-10"/>
<text text-anchor="start" x="1489.629" y="-15.4" font-family="sans-serif" font-size="14.00" fill="#000000"> &#160;Declarations</text>
<polygon fill="#8dd3c7" stroke="transparent" points="1579,-10 1579,-30 1599,-30 1599,-10 1579,-10"/>
<text text-anchor="start" x="1602.7251" y="-15.4" font-family="sans-serif" font-size="14.00" fill="#000000"> &#160;Module</text>
<polygon fill="#80b1d3" stroke="transparent" points="1665,-10 1665,-30 1685,-30 1685,-10 1665,-10"/>
<text text-anchor="start" x="1688.7812" y="-15.4" font-family="sans-serif" font-size="14.00" fill="#000000"> &#160;Bootstrap</text>
<polygon fill="#fdb462" stroke="transparent" points="1762,-10 1762,-30 1782,-30 1782,-10 1762,-10"/>
<text text-anchor="start" x="1785.6732" y="-15.4" font-family="sans-serif" font-size="14.00" fill="#000000"> &#160;Providers</text>
<polygon fill="#fb8072" stroke="transparent" points="1858,-10 1858,-30 1878,-30 1878,-10 1858,-10"/>
<text text-anchor="start" x="1881.7258" y="-15.4" font-family="sans-serif" font-size="14.00" fill="#000000"> &#160;Exports</text>
<g id="clust1" class="cluster">
<title>cluster_AppModule</title>
<polygon fill="none" stroke="#000000" stroke-dasharray="1,5" points="8,-70 8,-268 3392,-268 3392,-70 8,-70"/>
</g>
<g id="clust2" class="cluster">
<title>cluster_AppModule_declarations</title>
<polygon fill="none" stroke="#000000" points="2071,-78 2071,-130 3384,-130 3384,-78 2071,-78"/>
</g>
<g id="clust12" class="cluster">
<title>cluster_AppModule_imports</title>
<polygon fill="none" stroke="#000000" points="16,-78 16,-130 2063,-130 2063,-78 16,-78"/>
</g>
<g id="clust14" class="cluster">
<title>cluster_AppModule_bootstrap</title>
<polygon fill="none" stroke="#000000" points="1628,-208 1628,-260 1752,-260 1752,-208 1628,-208"/>
</g>
<!-- AppComponent -->
<g id="node1" class="node">
<title>AppComponent</title>
<polygon fill="#ffffb3" stroke="#000000" points="3375.9399,-122 3270.0601,-122 3270.0601,-86 3375.9399,-86 3375.9399,-122"/>
<text text-anchor="middle" x="3323" y="-99.8" font-family="Times,serif" font-size="14.00" fill="#000000">AppComponent</text>
</g>
<!-- AppModule -->
<g id="node10" class="node">
<title>AppModule</title>
<polygon fill="#8dd3c7" stroke="#000000" points="1731.6571,-187 1728.6571,-191 1707.6571,-191 1704.6571,-187 1648.3429,-187 1648.3429,-151 1731.6571,-151 1731.6571,-187"/>
<text text-anchor="middle" x="1690" y="-164.8" font-family="Times,serif" font-size="14.00" fill="#000000">AppModule</text>
</g>
<!-- AppComponent&#45;&gt;AppModule -->
<g id="edge1" class="edge">
<title>AppComponent&#45;&gt;AppModule</title>
<path fill="none" stroke="#000000" d="M3323,-122.1532C3323,-145.7566 3323,-184 3323,-184 3323,-184 1742.0075,-184 1742.0075,-184"/>
<polygon fill="#000000" stroke="#000000" points="1742.0076,-180.5001 1732.0075,-184 1742.0075,-187.5001 1742.0076,-180.5001"/>
</g>
<!-- HeaderComponent -->
<g id="node2" class="node">
<title>HeaderComponent</title>
<polygon fill="#ffffb3" stroke="#000000" points="3251.7437,-122 3130.2563,-122 3130.2563,-86 3251.7437,-86 3251.7437,-122"/>
<text text-anchor="middle" x="3191" y="-99.8" font-family="Times,serif" font-size="14.00" fill="#000000">HeaderComponent</text>
</g>
<!-- HeaderComponent&#45;&gt;AppModule -->
<g id="edge2" class="edge">
<title>HeaderComponent&#45;&gt;AppModule</title>
<path fill="none" stroke="#000000" d="M3191,-122.2479C3191,-145.0179 3191,-181 3191,-181 3191,-181 1741.7119,-181 1741.7119,-181"/>
<polygon fill="#000000" stroke="#000000" points="1741.712,-177.5001 1731.7119,-181 1741.7119,-184.5001 1741.712,-177.5001"/>
</g>
<!-- DropdownDirective -->
<g id="node3" class="node">
<title>DropdownDirective</title>
<polygon fill="#ffffb3" stroke="#000000" points="3111.9566,-122 2984.0434,-122 2984.0434,-86 3111.9566,-86 3111.9566,-122"/>
<text text-anchor="middle" x="3048" y="-99.8" font-family="Times,serif" font-size="14.00" fill="#000000">DropdownDirective</text>
</g>
<!-- DropdownDirective&#45;&gt;AppModule -->
<g id="edge3" class="edge">
<title>DropdownDirective&#45;&gt;AppModule</title>
<path fill="none" stroke="#000000" d="M3048,-122.2921C3048,-144.2057 3048,-178 3048,-178 3048,-178 1741.7568,-178 1741.7568,-178"/>
<polygon fill="#000000" stroke="#000000" points="1741.7568,-174.5001 1731.7568,-178 1741.7568,-181.5001 1741.7568,-174.5001"/>
</g>
<!-- UserHeaderComponent -->
<g id="node4" class="node">
<title>UserHeaderComponent</title>
<polygon fill="#ffffb3" stroke="#000000" points="2966.1699,-122 2817.8301,-122 2817.8301,-86 2966.1699,-86 2966.1699,-122"/>
<text text-anchor="middle" x="2892" y="-99.8" font-family="Times,serif" font-size="14.00" fill="#000000">UserHeaderComponent</text>
</g>
<!-- UserHeaderComponent&#45;&gt;AppModule -->
<g id="edge4" class="edge">
<title>UserHeaderComponent&#45;&gt;AppModule</title>
<path fill="none" stroke="#000000" d="M2892,-122.2843C2892,-143.3211 2892,-175 2892,-175 2892,-175 1741.7246,-175 1741.7246,-175"/>
<polygon fill="#000000" stroke="#000000" points="1741.7247,-171.5001 1731.7246,-175 1741.7246,-178.5001 1741.7247,-171.5001"/>
</g>
<!-- CommunityComponent -->
<g id="node5" class="node">
<title>CommunityComponent</title>
<polygon fill="#ffffb3" stroke="#000000" points="2800.2316,-122 2651.7684,-122 2651.7684,-86 2800.2316,-86 2800.2316,-122"/>
<text text-anchor="middle" x="2726" y="-99.8" font-family="Times,serif" font-size="14.00" fill="#000000">CommunityComponent</text>
</g>
<!-- CommunityComponent&#45;&gt;AppModule -->
<g id="edge5" class="edge">
<title>CommunityComponent&#45;&gt;AppModule</title>
<path fill="none" stroke="#000000" d="M2726,-122.2228C2726,-142.3652 2726,-172 2726,-172 2726,-172 1741.8956,-172 1741.8956,-172"/>
<polygon fill="#000000" stroke="#000000" points="1741.8956,-168.5001 1731.8956,-172 1741.8955,-175.5001 1741.8956,-168.5001"/>
</g>
<!-- ProfileComponent -->
<g id="node6" class="node">
<title>ProfileComponent</title>
<polygon fill="#ffffb3" stroke="#000000" points="2633.9328,-122 2514.0672,-122 2514.0672,-86 2633.9328,-86 2633.9328,-122"/>
<text text-anchor="middle" x="2574" y="-99.8" font-family="Times,serif" font-size="14.00" fill="#000000">ProfileComponent</text>
</g>
<!-- ProfileComponent&#45;&gt;AppModule -->
<g id="edge6" class="edge">
<title>ProfileComponent&#45;&gt;AppModule</title>
<path fill="none" stroke="#000000" d="M2574,-122.1061C2574,-141.3391 2574,-169 2574,-169 2574,-169 1741.7465,-169 1741.7465,-169"/>
<polygon fill="#000000" stroke="#000000" points="1741.7465,-165.5001 1731.7465,-169 1741.7465,-172.5001 1741.7465,-165.5001"/>
</g>
<!-- PostLayoutComponent -->
<g id="node7" class="node">
<title>PostLayoutComponent</title>
<polygon fill="#ffffb3" stroke="#000000" points="2496.608,-122 2351.392,-122 2351.392,-86 2496.608,-86 2496.608,-122"/>
<text text-anchor="middle" x="2424" y="-99.8" font-family="Times,serif" font-size="14.00" fill="#000000">PostLayoutComponent</text>
</g>
<!-- PostLayoutComponent&#45;&gt;AppModule -->
<g id="edge7" class="edge">
<title>PostLayoutComponent&#45;&gt;AppModule</title>
<path fill="none" stroke="#000000" d="M2424,-122.2667C2424,-140.5552 2424,-166 2424,-166 2424,-166 1741.8323,-166 1741.8323,-166"/>
<polygon fill="#000000" stroke="#000000" points="1741.8324,-162.5001 1731.8323,-166 1741.8323,-169.5001 1741.8324,-162.5001"/>
</g>
<!-- LoginComponent -->
<g id="node8" class="node">
<title>LoginComponent</title>
<polygon fill="#ffffb3" stroke="#000000" points="2333.2758,-122 2218.7242,-122 2218.7242,-86 2333.2758,-86 2333.2758,-122"/>
<text text-anchor="middle" x="2276" y="-99.8" font-family="Times,serif" font-size="14.00" fill="#000000">LoginComponent</text>
</g>
<!-- LoginComponent&#45;&gt;AppModule -->
<g id="edge8" class="edge">
<title>LoginComponent&#45;&gt;AppModule</title>
<path fill="none" stroke="#000000" d="M2276,-122.0225C2276,-139.3734 2276,-163 2276,-163 2276,-163 1741.6739,-163 1741.6739,-163"/>
<polygon fill="#000000" stroke="#000000" points="1741.6739,-159.5001 1731.6739,-163 1741.6739,-166.5001 1741.6739,-159.5001"/>
</g>
<!-- SignupComponent -->
<g id="node9" class="node">
<title>SignupComponent</title>
<polygon fill="#ffffb3" stroke="#000000" points="2200.5056,-122 2079.4944,-122 2079.4944,-86 2200.5056,-86 2200.5056,-122"/>
<text text-anchor="middle" x="2140" y="-99.8" font-family="Times,serif" font-size="14.00" fill="#000000">SignupComponent</text>
</g>
<!-- SignupComponent&#45;&gt;AppModule -->
<g id="edge9" class="edge">
<title>SignupComponent&#45;&gt;AppModule</title>
<path fill="none" stroke="#000000" d="M2140,-122.027C2140,-138.3976 2140,-160 2140,-160 2140,-160 1741.9308,-160 1741.9308,-160"/>
<polygon fill="#000000" stroke="#000000" points="1741.9308,-156.5001 1731.9308,-160 1741.9308,-163.5001 1741.9308,-156.5001"/>
</g>
<!-- AppComponent  -->
<g id="node25" class="node">
<title>AppComponent </title>
<polygon fill="#80b1d3" stroke="#000000" points="1744.439,-252 1635.561,-252 1635.561,-216 1744.439,-216 1744.439,-252"/>
<text text-anchor="middle" x="1690" y="-229.8" font-family="Times,serif" font-size="14.00" fill="#000000">AppComponent </text>
</g>
<!-- AppModule&#45;&gt;AppComponent  -->
<g id="edge25" class="edge">
<title>AppModule&#45;&gt;AppComponent </title>
<path fill="none" stroke="#000000" stroke-dasharray="1,5" d="M1690,-187.1061C1690,-187.1061 1690,-205.991 1690,-205.991"/>
<polygon fill="#000000" stroke="#000000" points="1686.5001,-205.9909 1690,-215.991 1693.5001,-205.991 1686.5001,-205.9909"/>
</g>
<!-- BrowserModule -->
<g id="node11" class="node">
<title>BrowserModule</title>
<polygon fill="#8dd3c7" stroke="#000000" points="2055.4734,-122 2052.4734,-126 2031.4734,-126 2028.4734,-122 1948.5266,-122 1948.5266,-86 2055.4734,-86 2055.4734,-122"/>
<text text-anchor="middle" x="2002" y="-99.8" font-family="Times,serif" font-size="14.00" fill="#000000">BrowserModule</text>
</g>
<!-- BrowserModule&#45;&gt;AppModule -->
<g id="edge10" class="edge">
<title>BrowserModule&#45;&gt;AppModule</title>
<path fill="none" stroke="#000000" d="M2002,-122.2396C2002,-137.5706 2002,-157 2002,-157 2002,-157 1741.754,-157 1741.754,-157"/>
<polygon fill="#000000" stroke="#000000" points="1741.754,-153.5001 1731.754,-157 1741.7539,-160.5001 1741.754,-153.5001"/>
</g>
<!-- AppRoutingModule -->
<g id="node12" class="node">
<title>AppRoutingModule</title>
<polygon fill="#8dd3c7" stroke="#000000" points="1930.2744,-122 1927.2744,-126 1906.2744,-126 1903.2744,-122 1801.7256,-122 1801.7256,-86 1930.2744,-86 1930.2744,-122"/>
<text text-anchor="middle" x="1866" y="-99.8" font-family="Times,serif" font-size="14.00" fill="#000000">AppRoutingModule</text>
</g>
<!-- AppRoutingModule&#45;&gt;AppModule -->
<g id="edge11" class="edge">
<title>AppRoutingModule&#45;&gt;AppModule</title>
<path fill="none" stroke="#000000" d="M1866,-122.0511C1866,-136.373 1866,-154 1866,-154 1866,-154 1741.7095,-154 1741.7095,-154"/>
<polygon fill="#000000" stroke="#000000" points="1741.7096,-150.5001 1731.7095,-154 1741.7095,-157.5001 1741.7096,-150.5001"/>
</g>
<!-- AngularFontAwesomeModule -->
<g id="node13" class="node">
<title>AngularFontAwesomeModule</title>
<polygon fill="#8dd3c7" stroke="#000000" points="1783.573,-122 1780.573,-126 1759.573,-126 1756.573,-122 1596.427,-122 1596.427,-86 1783.573,-86 1783.573,-122"/>
<text text-anchor="middle" x="1690" y="-99.8" font-family="Times,serif" font-size="14.00" fill="#000000">AngularFontAwesomeModule</text>
</g>
<!-- AngularFontAwesomeModule&#45;&gt;AppModule -->
<g id="edge12" class="edge">
<title>AngularFontAwesomeModule&#45;&gt;AppModule</title>
<path fill="none" stroke="#000000" d="M1676.0573,-122.1061C1676.0573,-122.1061 1676.0573,-140.991 1676.0573,-140.991"/>
<polygon fill="#000000" stroke="#000000" points="1672.5574,-140.9909 1676.0573,-150.991 1679.5574,-140.991 1672.5574,-140.9909"/>
</g>
<!-- AngularFontAwesomeModule&#45;&gt;AppModule -->
<g id="edge14" class="edge">
<title>AngularFontAwesomeModule&#45;&gt;AppModule</title>
<path fill="none" stroke="#000000" d="M1703.9427,-122.1061C1703.9427,-122.1061 1703.9427,-140.991 1703.9427,-140.991"/>
<polygon fill="#000000" stroke="#000000" points="1700.4428,-140.9909 1703.9427,-150.991 1707.4428,-140.991 1700.4428,-140.9909"/>
</g>
<!-- HttpClientModule -->
<g id="node14" class="node">
<title>HttpClientModule</title>
<polygon fill="#8dd3c7" stroke="#000000" points="1578.1611,-122 1575.1611,-126 1554.1611,-126 1551.1611,-122 1459.8389,-122 1459.8389,-86 1578.1611,-86 1578.1611,-122"/>
<text text-anchor="middle" x="1519" y="-99.8" font-family="Times,serif" font-size="14.00" fill="#000000">HttpClientModule</text>
</g>
<!-- HttpClientModule&#45;&gt;AppModule -->
<g id="edge13" class="edge">
<title>HttpClientModule&#45;&gt;AppModule</title>
<path fill="none" stroke="#000000" d="M1519,-122.0511C1519,-136.373 1519,-154 1519,-154 1519,-154 1638.1687,-154 1638.1687,-154"/>
<polygon fill="#000000" stroke="#000000" points="1638.1687,-157.5001 1648.1687,-154 1638.1687,-150.5001 1638.1687,-157.5001"/>
</g>
<!-- MatButtonModule -->
<g id="node15" class="node">
<title>MatButtonModule</title>
<polygon fill="#8dd3c7" stroke="#000000" points="1442.2176,-122 1439.2176,-126 1418.2176,-126 1415.2176,-122 1321.7824,-122 1321.7824,-86 1442.2176,-86 1442.2176,-122"/>
<text text-anchor="middle" x="1382" y="-99.8" font-family="Times,serif" font-size="14.00" fill="#000000">MatButtonModule</text>
</g>
<!-- MatButtonModule&#45;&gt;AppModule -->
<g id="edge15" class="edge">
<title>MatButtonModule&#45;&gt;AppModule</title>
<path fill="none" stroke="#000000" d="M1382,-122.2396C1382,-137.5706 1382,-157 1382,-157 1382,-157 1638.1412,-157 1638.1412,-157"/>
<polygon fill="#000000" stroke="#000000" points="1638.1412,-160.5001 1648.1412,-157 1638.1412,-153.5001 1638.1412,-160.5001"/>
</g>
<!-- MatDividerModule -->
<g id="node16" class="node">
<title>MatDividerModule</title>
<polygon fill="#8dd3c7" stroke="#000000" points="1303.3627,-122 1300.3627,-126 1279.3627,-126 1276.3627,-122 1178.6373,-122 1178.6373,-86 1303.3627,-86 1303.3627,-122"/>
<text text-anchor="middle" x="1241" y="-99.8" font-family="Times,serif" font-size="14.00" fill="#000000">MatDividerModule</text>
</g>
<!-- MatDividerModule&#45;&gt;AppModule -->
<g id="edge16" class="edge">
<title>MatDividerModule&#45;&gt;AppModule</title>
<path fill="none" stroke="#000000" d="M1241,-122.027C1241,-138.3976 1241,-160 1241,-160 1241,-160 1638.1624,-160 1638.1624,-160"/>
<polygon fill="#000000" stroke="#000000" points="1638.1624,-163.5001 1648.1624,-160 1638.1623,-156.5001 1638.1624,-163.5001"/>
</g>
<!-- MatListModule -->
<g id="node17" class="node">
<title>MatListModule</title>
<polygon fill="#8dd3c7" stroke="#000000" points="1160.8781,-122 1157.8781,-126 1136.8781,-126 1133.8781,-122 1057.1219,-122 1057.1219,-86 1160.8781,-86 1160.8781,-122"/>
<text text-anchor="middle" x="1109" y="-99.8" font-family="Times,serif" font-size="14.00" fill="#000000">MatListModule</text>
</g>
<!-- MatListModule&#45;&gt;AppModule -->
<g id="edge17" class="edge">
<title>MatListModule&#45;&gt;AppModule</title>
<path fill="none" stroke="#000000" d="M1109,-122.0225C1109,-139.3734 1109,-163 1109,-163 1109,-163 1638.2159,-163 1638.2159,-163"/>
<polygon fill="#000000" stroke="#000000" points="1638.2159,-166.5001 1648.2159,-163 1638.2159,-159.5001 1638.2159,-166.5001"/>
</g>
<!-- MatToolbarModule -->
<g id="node18" class="node">
<title>MatToolbarModule</title>
<polygon fill="#8dd3c7" stroke="#000000" points="1039.4187,-122 1036.4187,-126 1015.4187,-126 1012.4187,-122 912.5813,-122 912.5813,-86 1039.4187,-86 1039.4187,-122"/>
<text text-anchor="middle" x="976" y="-99.8" font-family="Times,serif" font-size="14.00" fill="#000000">MatToolbarModule</text>
</g>
<!-- MatToolbarModule&#45;&gt;AppModule -->
<g id="edge18" class="edge">
<title>MatToolbarModule&#45;&gt;AppModule</title>
<path fill="none" stroke="#000000" d="M976,-122.2667C976,-140.5552 976,-166 976,-166 976,-166 1638.2643,-166 1638.2643,-166"/>
<polygon fill="#000000" stroke="#000000" points="1638.2643,-169.5001 1648.2643,-166 1638.2642,-162.5001 1638.2643,-169.5001"/>
</g>
<!-- MatCardModule -->
<g id="node19" class="node">
<title>MatCardModule</title>
<polygon fill="#8dd3c7" stroke="#000000" points="894.8118,-122 891.8118,-126 870.8118,-126 867.8118,-122 785.1882,-122 785.1882,-86 894.8118,-86 894.8118,-122"/>
<text text-anchor="middle" x="840" y="-99.8" font-family="Times,serif" font-size="14.00" fill="#000000">MatCardModule</text>
</g>
<!-- MatCardModule&#45;&gt;AppModule -->
<g id="edge19" class="edge">
<title>MatCardModule&#45;&gt;AppModule</title>
<path fill="none" stroke="#000000" d="M840,-122.1061C840,-141.3391 840,-169 840,-169 840,-169 1638.1383,-169 1638.1383,-169"/>
<polygon fill="#000000" stroke="#000000" points="1638.1383,-172.5001 1648.1383,-169 1638.1383,-165.5001 1638.1383,-172.5001"/>
</g>
<!-- MatIconModule -->
<g id="node20" class="node">
<title>MatIconModule</title>
<polygon fill="#8dd3c7" stroke="#000000" points="767.4748,-122 764.4748,-126 743.4748,-126 740.4748,-122 660.5252,-122 660.5252,-86 767.4748,-86 767.4748,-122"/>
<text text-anchor="middle" x="714" y="-99.8" font-family="Times,serif" font-size="14.00" fill="#000000">MatIconModule</text>
</g>
<!-- MatIconModule&#45;&gt;AppModule -->
<g id="edge20" class="edge">
<title>MatIconModule&#45;&gt;AppModule</title>
<path fill="none" stroke="#000000" d="M714,-122.2228C714,-142.3652 714,-172 714,-172 714,-172 1638.0625,-172 1638.0625,-172"/>
<polygon fill="#000000" stroke="#000000" points="1638.0625,-175.5001 1648.0625,-172 1638.0625,-168.5001 1638.0625,-175.5001"/>
</g>
<!-- ModalModule.forRoot() -->
<g id="node21" class="node">
<title>ModalModule.forRoot()</title>
<polygon fill="#8dd3c7" stroke="#000000" points="642.4699,-122 639.4699,-126 618.4699,-126 615.4699,-122 489.5301,-122 489.5301,-86 642.4699,-86 642.4699,-122"/>
<text text-anchor="middle" x="566" y="-99.8" font-family="Times,serif" font-size="14.00" fill="#000000">ModalModule.forRoot()</text>
</g>
<!-- ModalModule.forRoot()&#45;&gt;AppModule -->
<g id="edge21" class="edge">
<title>ModalModule.forRoot()&#45;&gt;AppModule</title>
<path fill="none" stroke="#000000" d="M566,-122.2843C566,-143.3211 566,-175 566,-175 566,-175 1638.3269,-175 1638.3269,-175"/>
<polygon fill="#000000" stroke="#000000" points="1638.3269,-178.5001 1648.3269,-175 1638.3268,-171.5001 1638.3269,-178.5001"/>
</g>
<!-- BrowserAnimationsModule -->
<g id="node22" class="node">
<title>BrowserAnimationsModule</title>
<polygon fill="#8dd3c7" stroke="#000000" points="472.3019,-122 469.3019,-126 448.3019,-126 445.3019,-122 299.6981,-122 299.6981,-86 472.3019,-86 472.3019,-122"/>
<text text-anchor="middle" x="386" y="-99.8" font-family="Times,serif" font-size="14.00" fill="#000000">BrowserAnimationsModule</text>
</g>
<!-- BrowserAnimationsModule&#45;&gt;AppModule -->
<g id="edge22" class="edge">
<title>BrowserAnimationsModule&#45;&gt;AppModule</title>
<path fill="none" stroke="#000000" d="M386,-122.2921C386,-144.2057 386,-178 386,-178 386,-178 1638.0905,-178 1638.0905,-178"/>
<polygon fill="#000000" stroke="#000000" points="1638.0905,-181.5001 1648.0905,-178 1638.0905,-174.5001 1638.0905,-181.5001"/>
</g>
<!-- ReactiveFormsModule -->
<g id="node23" class="node">
<title>ReactiveFormsModule</title>
<polygon fill="#8dd3c7" stroke="#000000" points="282.3047,-122 279.3047,-126 258.3047,-126 255.3047,-122 137.6953,-122 137.6953,-86 282.3047,-86 282.3047,-122"/>
<text text-anchor="middle" x="210" y="-99.8" font-family="Times,serif" font-size="14.00" fill="#000000">ReactiveFormsModule</text>
</g>
<!-- ReactiveFormsModule&#45;&gt;AppModule -->
<g id="edge23" class="edge">
<title>ReactiveFormsModule&#45;&gt;AppModule</title>
<path fill="none" stroke="#000000" d="M210,-122.2479C210,-145.0179 210,-181 210,-181 210,-181 1638.0905,-181 1638.0905,-181"/>
<polygon fill="#000000" stroke="#000000" points="1638.0905,-184.5001 1648.0905,-181 1638.0905,-177.5001 1638.0905,-184.5001"/>
</g>
<!-- FormsModule -->
<g id="node24" class="node">
<title>FormsModule</title>
<polygon fill="#8dd3c7" stroke="#000000" points="119.8288,-122 116.8288,-126 95.8288,-126 92.8288,-122 24.1712,-122 24.1712,-86 119.8288,-86 119.8288,-122"/>
<text text-anchor="middle" x="72" y="-99.8" font-family="Times,serif" font-size="14.00" fill="#000000">FormsModule</text>
</g>
<!-- FormsModule&#45;&gt;AppModule -->
<g id="edge24" class="edge">
<title>FormsModule&#45;&gt;AppModule</title>
<path fill="none" stroke="#000000" d="M72,-122.1532C72,-145.7566 72,-184 72,-184 72,-184 1637.9671,-184 1637.9671,-184"/>
<polygon fill="#000000" stroke="#000000" points="1637.9672,-187.5001 1647.9671,-184 1637.9671,-180.5001 1637.9672,-187.5001"/>
</g>
</g>
</svg>
