<?xml version="1.0" encoding="UTF-8" standalone="no"?>
<!DOCTYPE svg PUBLIC "-//W3C//DTD SVG 1.1//EN"
 "http://www.w3.org/Graphics/SVG/1.1/DTD/svg11.dtd">
<!-- Generated by graphviz version 2.40.1 (20161225.0304)
 -->
<!-- Title: dependencies Pages: 1 -->
<svg width="5481pt" height="284pt"
 viewBox="0.00 0.00 5481.00 284.00" xmlns="http://www.w3.org/2000/svg" xmlns:xlink="http://www.w3.org/1999/xlink">
<g id="graph0" class="graph" transform="scale(1 1) rotate(0) translate(4 280)">
<title>dependencies</title>
<polygon fill="#ffffff" stroke="transparent" points="-4,4 -4,-280 5477,-280 5477,4 -4,4"/>
<text text-anchor="start" x="2715.5091" y="-42.4" font-family="sans-serif" font-weight="bold" font-size="14.00" fill="#000000">Legend</text>
<polygon fill="#ffffb3" stroke="transparent" points="2502.5,-10 2502.5,-30 2522.5,-30 2522.5,-10 2502.5,-10"/>
<text text-anchor="start" x="2526.129" y="-15.4" font-family="sans-serif" font-size="14.00" fill="#000000"> &#160;Declarations</text>
<polygon fill="#8dd3c7" stroke="transparent" points="2615.5,-10 2615.5,-30 2635.5,-30 2635.5,-10 2615.5,-10"/>
<text text-anchor="start" x="2639.2251" y="-15.4" font-family="sans-serif" font-size="14.00" fill="#000000"> &#160;Module</text>
<polygon fill="#80b1d3" stroke="transparent" points="2701.5,-10 2701.5,-30 2721.5,-30 2721.5,-10 2701.5,-10"/>
<text text-anchor="start" x="2725.2812" y="-15.4" font-family="sans-serif" font-size="14.00" fill="#000000"> &#160;Bootstrap</text>
<polygon fill="#fdb462" stroke="transparent" points="2798.5,-10 2798.5,-30 2818.5,-30 2818.5,-10 2798.5,-10"/>
<text text-anchor="start" x="2822.1732" y="-15.4" font-family="sans-serif" font-size="14.00" fill="#000000"> &#160;Providers</text>
<polygon fill="#fb8072" stroke="transparent" points="2894.5,-10 2894.5,-30 2914.5,-30 2914.5,-10 2894.5,-10"/>
<text text-anchor="start" x="2918.2258" y="-15.4" font-family="sans-serif" font-size="14.00" fill="#000000"> &#160;Exports</text>
<g id="clust1" class="cluster">
<title>cluster_AppModule</title>
<polygon fill="none" stroke="#000000" stroke-dasharray="1,5" points="8,-70 8,-268 5465,-268 5465,-70 8,-70"/>
</g>
<g id="clust2" class="cluster">
<title>cluster_AppModule_declarations</title>
<polygon fill="none" stroke="#000000" points="168,-78 168,-130 5457,-130 5457,-78 168,-78"/>
</g>
<g id="clust35" class="cluster">
<title>cluster_AppModule_imports</title>
<polygon fill="none" stroke="#000000" points="16,-78 16,-130 160,-130 160,-78 16,-78"/>
</g>
<g id="clust37" class="cluster">
<title>cluster_AppModule_bootstrap</title>
<polygon fill="none" stroke="#000000" points="2470,-208 2470,-260 2594,-260 2594,-208 2470,-208"/>
</g>
<!-- AccountSettingComponent -->
<g id="node1" class="node">
<title>AccountSettingComponent</title>
<polygon fill="#ffffb3" stroke="#000000" points="5449.4283,-122 5280.5717,-122 5280.5717,-86 5449.4283,-86 5449.4283,-122"/>
<text text-anchor="middle" x="5365" y="-99.8" font-family="Times,serif" font-size="14.00" fill="#000000">AccountSettingComponent</text>
</g>
<!-- AppModule -->
<g id="node33" class="node">
<title>AppModule</title>
<polygon fill="#8dd3c7" stroke="#000000" points="2573.6571,-187 2570.6571,-191 2549.6571,-191 2546.6571,-187 2490.3429,-187 2490.3429,-151 2573.6571,-151 2573.6571,-187"/>
<text text-anchor="middle" x="2532" y="-164.8" font-family="Times,serif" font-size="14.00" fill="#000000">AppModule</text>
</g>
<!-- AccountSettingComponent&#45;&gt;AppModule -->
<g id="edge1" class="edge">
<title>AccountSettingComponent&#45;&gt;AppModule</title>
<path fill="none" stroke="#000000" d="M5365,-122.3802C5365,-146.2785 5365,-185 5365,-185 5365,-185 2583.6915,-185 2583.6915,-185"/>
<polygon fill="#000000" stroke="#000000" points="2583.6915,-181.5001 2573.6915,-185 2583.6914,-188.5001 2583.6915,-181.5001"/>
</g>
<!-- AppComponent -->
<g id="node2" class="node">
<title>AppComponent</title>
<polygon fill="#ffffb3" stroke="#000000" points="5262.9399,-122 5157.0601,-122 5157.0601,-86 5262.9399,-86 5262.9399,-122"/>
<text text-anchor="middle" x="5210" y="-99.8" font-family="Times,serif" font-size="14.00" fill="#000000">AppComponent</text>
</g>
<!-- AppComponent&#45;&gt;AppModule -->
<g id="edge2" class="edge">
<title>AppComponent&#45;&gt;AppModule</title>
<path fill="none" stroke="#000000" d="M5210,-122.3228C5210,-145.6602 5210,-183 5210,-183 5210,-183 2583.7959,-183 2583.7959,-183"/>
<polygon fill="#000000" stroke="#000000" points="2583.7959,-179.5001 2573.7959,-183 2583.7958,-186.5001 2583.7959,-179.5001"/>
</g>
<!-- CommentsComponent -->
<g id="node3" class="node">
<title>CommentsComponent</title>
<polygon fill="#ffffb3" stroke="#000000" points="5139,-122 4997,-122 4997,-86 5139,-86 5139,-122"/>
<text text-anchor="middle" x="5068" y="-99.8" font-family="Times,serif" font-size="14.00" fill="#000000">CommentsComponent</text>
</g>
<!-- CommentsComponent&#45;&gt;AppModule -->
<g id="edge3" class="edge">
<title>CommentsComponent&#45;&gt;AppModule</title>
<path fill="none" stroke="#000000" d="M5068,-122.2479C5068,-145.0179 5068,-181 5068,-181 5068,-181 2583.9012,-181 2583.9012,-181"/>
<polygon fill="#000000" stroke="#000000" points="2583.9012,-177.5001 2573.9012,-181 2583.9011,-184.5001 2583.9012,-177.5001"/>
</g>
<!-- CommentsLayoutComponent -->
<g id="node4" class="node">
<title>CommentsLayoutComponent</title>
<polygon fill="#ffffb3" stroke="#000000" points="4978.6581,-122 4797.3419,-122 4797.3419,-86 4978.6581,-86 4978.6581,-122"/>
<text text-anchor="middle" x="4888" y="-99.8" font-family="Times,serif" font-size="14.00" fill="#000000">CommentsLayoutComponent</text>
</g>
<!-- CommentsLayoutComponent&#45;&gt;AppModule -->
<g id="edge4" class="edge">
<title>CommentsLayoutComponent&#45;&gt;AppModule</title>
<path fill="none" stroke="#000000" d="M4888,-122.1554C4888,-144.3519 4888,-179 4888,-179 4888,-179 2583.8927,-179 2583.8927,-179"/>
<polygon fill="#000000" stroke="#000000" points="2583.8927,-175.5001 2573.8927,-179 2583.8927,-182.5001 2583.8927,-175.5001"/>
</g>
<!-- CommunityComponent -->
<g id="node5" class="node">
<title>CommunityComponent</title>
<polygon fill="#ffffb3" stroke="#000000" points="4779.2316,-122 4630.7684,-122 4630.7684,-86 4779.2316,-86 4779.2316,-122"/>
<text text-anchor="middle" x="4705" y="-99.8" font-family="Times,serif" font-size="14.00" fill="#000000">CommunityComponent</text>
</g>
<!-- CommunityComponent&#45;&gt;AppModule -->
<g id="edge5" class="edge">
<title>CommunityComponent&#45;&gt;AppModule</title>
<path fill="none" stroke="#000000" d="M4705,-122.0449C4705,-143.6623 4705,-177 4705,-177 4705,-177 2583.9489,-177 2583.9489,-177"/>
<polygon fill="#000000" stroke="#000000" points="2583.9489,-173.5001 2573.9489,-177 2583.9488,-180.5001 2583.9489,-173.5001"/>
</g>
<!-- CommunityModeratorsComponent -->
<g id="node6" class="node">
<title>CommunityModeratorsComponent</title>
<polygon fill="#ffffb3" stroke="#000000" points="4613.2617,-122 4400.7383,-122 4400.7383,-86 4613.2617,-86 4613.2617,-122"/>
<text text-anchor="middle" x="4507" y="-99.8" font-family="Times,serif" font-size="14.00" fill="#000000">CommunityModeratorsComponent</text>
</g>
<!-- CommunityModeratorsComponent&#45;&gt;AppModule -->
<g id="edge6" class="edge">
<title>CommunityModeratorsComponent&#45;&gt;AppModule</title>
<path fill="none" stroke="#000000" d="M4507,-122.2843C4507,-143.3211 4507,-175 4507,-175 4507,-175 2583.7064,-175 2583.7064,-175"/>
<polygon fill="#000000" stroke="#000000" points="2583.7064,-171.5001 2573.7064,-175 2583.7063,-178.5001 2583.7064,-171.5001"/>
</g>
<!-- ConfirmationDialogComponent -->
<g id="node7" class="node">
<title>ConfirmationDialogComponent</title>
<polygon fill="#ffffb3" stroke="#000000" points="4382.3696,-122 4187.6304,-122 4187.6304,-86 4382.3696,-86 4382.3696,-122"/>
<text text-anchor="middle" x="4285" y="-99.8" font-family="Times,serif" font-size="14.00" fill="#000000">ConfirmationDialogComponent</text>
</g>
<!-- ConfirmationDialogComponent&#45;&gt;AppModule -->
<g id="edge7" class="edge">
<title>ConfirmationDialogComponent&#45;&gt;AppModule</title>
<path fill="none" stroke="#000000" d="M4285,-122.1289C4285,-142.5724 4285,-173 4285,-173 4285,-173 2584.033,-173 2584.033,-173"/>
<polygon fill="#000000" stroke="#000000" points="2584.033,-169.5001 2574.033,-173 2584.033,-176.5001 2584.033,-169.5001"/>
</g>
<!-- CreateCommunityComponent -->
<g id="node8" class="node">
<title>CreateCommunityComponent</title>
<polygon fill="#ffffb3" stroke="#000000" points="4169.2632,-122 3984.7368,-122 3984.7368,-86 4169.2632,-86 4169.2632,-122"/>
<text text-anchor="middle" x="4077" y="-99.8" font-family="Times,serif" font-size="14.00" fill="#000000">CreateCommunityComponent</text>
</g>
<!-- CreateCommunityComponent&#45;&gt;AppModule -->
<g id="edge8" class="edge">
<title>CreateCommunityComponent&#45;&gt;AppModule</title>
<path fill="none" stroke="#000000" d="M4077,-122.308C4077,-142.1455 4077,-171 4077,-171 4077,-171 2583.7248,-171 2583.7248,-171"/>
<polygon fill="#000000" stroke="#000000" points="2583.7248,-167.5001 2573.7248,-171 2583.7247,-174.5001 2583.7248,-167.5001"/>
</g>
<!-- CreatePostComponent -->
<g id="node9" class="node">
<title>CreatePostComponent</title>
<polygon fill="#ffffb3" stroke="#000000" points="3966.9818,-122 3825.0182,-122 3825.0182,-86 3966.9818,-86 3966.9818,-122"/>
<text text-anchor="middle" x="3896" y="-99.8" font-family="Times,serif" font-size="14.00" fill="#000000">CreatePostComponent</text>
</g>
<!-- CreatePostComponent&#45;&gt;AppModule -->
<g id="edge9" class="edge">
<title>CreatePostComponent&#45;&gt;AppModule</title>
<path fill="none" stroke="#000000" d="M3896,-122.1686C3896,-141.0898 3896,-168 3896,-168 3896,-168 2583.9413,-168 2583.9413,-168"/>
<polygon fill="#000000" stroke="#000000" points="2583.9413,-164.5001 2573.9413,-168 2583.9412,-171.5001 2583.9413,-164.5001"/>
</g>
<!-- DeactivateAccountComponent -->
<g id="node10" class="node">
<title>DeactivateAccountComponent</title>
<polygon fill="#ffffb3" stroke="#000000" points="3807.1106,-122 3618.8894,-122 3618.8894,-86 3807.1106,-86 3807.1106,-122"/>
<text text-anchor="middle" x="3713" y="-99.8" font-family="Times,serif" font-size="14.00" fill="#000000">DeactivateAccountComponent</text>
</g>
<!-- DeactivateAccountComponent&#45;&gt;AppModule -->
<g id="edge10" class="edge">
<title>DeactivateAccountComponent&#45;&gt;AppModule</title>
<path fill="none" stroke="#000000" d="M3713,-122.2667C3713,-140.5552 3713,-166 3713,-166 3713,-166 2583.6855,-166 2583.6855,-166"/>
<polygon fill="#000000" stroke="#000000" points="2583.6856,-162.5001 2573.6855,-166 2583.6855,-169.5001 2583.6856,-162.5001"/>
</g>
<!-- DownvotedComponent -->
<g id="node11" class="node">
<title>DownvotedComponent</title>
<polygon fill="#ffffb3" stroke="#000000" points="3600.1512,-122 3453.8488,-122 3453.8488,-86 3600.1512,-86 3600.1512,-122"/>
<text text-anchor="middle" x="3527" y="-99.8" font-family="Times,serif" font-size="14.00" fill="#000000">DownvotedComponent</text>
</g>
<!-- DownvotedComponent&#45;&gt;AppModule -->
<g id="edge11" class="edge">
<title>DownvotedComponent&#45;&gt;AppModule</title>
<path fill="none" stroke="#000000" d="M3527,-122.002C3527,-139.6754 3527,-164 3527,-164 3527,-164 2583.8022,-164 2583.8022,-164"/>
<polygon fill="#000000" stroke="#000000" points="2583.8023,-160.5001 2573.8022,-164 2583.8022,-167.5001 2583.8023,-160.5001"/>
</g>
<!-- EditCommunityComponent -->
<g id="node12" class="node">
<title>EditCommunityComponent</title>
<polygon fill="#ffffb3" stroke="#000000" points="3435.5657,-122 3264.4343,-122 3264.4343,-86 3435.5657,-86 3435.5657,-122"/>
<text text-anchor="middle" x="3350" y="-99.8" font-family="Times,serif" font-size="14.00" fill="#000000">EditCommunityComponent</text>
</g>
<!-- EditCommunityComponent&#45;&gt;AppModule -->
<g id="edge12" class="edge">
<title>EditCommunityComponent&#45;&gt;AppModule</title>
<path fill="none" stroke="#000000" d="M3350,-122.0336C3350,-139.0597 3350,-162 3350,-162 3350,-162 2583.6893,-162 2583.6893,-162"/>
<polygon fill="#000000" stroke="#000000" points="2583.6894,-158.5001 2573.6893,-162 2583.6893,-165.5001 2583.6894,-158.5001"/>
</g>
<!-- ErrorComponent -->
<g id="node13" class="node">
<title>ErrorComponent</title>
<polygon fill="#ffffb3" stroke="#000000" points="3246.3669,-122 3135.6331,-122 3135.6331,-86 3246.3669,-86 3246.3669,-122"/>
<text text-anchor="middle" x="3191" y="-99.8" font-family="Times,serif" font-size="14.00" fill="#000000">ErrorComponent</text>
</g>
<!-- ErrorComponent&#45;&gt;AppModule -->
<g id="edge13" class="edge">
<title>ErrorComponent&#45;&gt;AppModule</title>
<path fill="none" stroke="#000000" d="M3191,-122.027C3191,-138.3976 3191,-160 3191,-160 3191,-160 2583.7233,-160 2583.7233,-160"/>
<polygon fill="#000000" stroke="#000000" points="2583.7234,-156.5001 2573.7233,-160 2583.7233,-163.5001 2583.7234,-156.5001"/>
</g>
<!-- ForgotPasswordComponent -->
<g id="node14" class="node">
<title>ForgotPasswordComponent</title>
<polygon fill="#ffffb3" stroke="#000000" points="3117.3201,-122 2944.6799,-122 2944.6799,-86 3117.3201,-86 3117.3201,-122"/>
<text text-anchor="middle" x="3031" y="-99.8" font-family="Times,serif" font-size="14.00" fill="#000000">ForgotPasswordComponent</text>
</g>
<!-- ForgotPasswordComponent&#45;&gt;AppModule -->
<g id="edge14" class="edge">
<title>ForgotPasswordComponent&#45;&gt;AppModule</title>
<path fill="none" stroke="#000000" d="M3031,-122.2819C3031,-137.9478 3031,-158 3031,-158 3031,-158 2583.6862,-158 2583.6862,-158"/>
<polygon fill="#000000" stroke="#000000" points="2583.6862,-154.5001 2573.6862,-158 2583.6861,-161.5001 2583.6862,-154.5001"/>
</g>
<!-- ForgotUsernameComponent -->
<g id="node15" class="node">
<title>ForgotUsernameComponent</title>
<polygon fill="#ffffb3" stroke="#000000" points="2926.9129,-122 2751.0871,-122 2751.0871,-86 2926.9129,-86 2926.9129,-122"/>
<text text-anchor="middle" x="2839" y="-99.8" font-family="Times,serif" font-size="14.00" fill="#000000">ForgotUsernameComponent</text>
</g>
<!-- ForgotUsernameComponent&#45;&gt;AppModule -->
<g id="edge15" class="edge">
<title>ForgotUsernameComponent&#45;&gt;AppModule</title>
<path fill="none" stroke="#000000" d="M2839,-122.1871C2839,-137.1824 2839,-156 2839,-156 2839,-156 2583.7229,-156 2583.7229,-156"/>
<polygon fill="#000000" stroke="#000000" points="2583.7229,-152.5001 2573.7229,-156 2583.7229,-159.5001 2583.7229,-152.5001"/>
</g>
<!-- HeaderComponent -->
<g id="node16" class="node">
<title>HeaderComponent</title>
<polygon fill="#ffffb3" stroke="#000000" points="2732.7437,-122 2611.2563,-122 2611.2563,-86 2732.7437,-86 2732.7437,-122"/>
<text text-anchor="middle" x="2672" y="-99.8" font-family="Times,serif" font-size="14.00" fill="#000000">HeaderComponent</text>
</g>
<!-- HeaderComponent&#45;&gt;AppModule -->
<g id="edge16" class="edge">
<title>HeaderComponent&#45;&gt;AppModule</title>
<path fill="none" stroke="#000000" d="M2672,-122.0511C2672,-136.373 2672,-154 2672,-154 2672,-154 2584.0046,-154 2584.0046,-154"/>
<polygon fill="#000000" stroke="#000000" points="2584.0047,-150.5001 2574.0046,-154 2584.0046,-157.5001 2584.0047,-150.5001"/>
</g>
<!-- HiddenComponent -->
<g id="node17" class="node">
<title>HiddenComponent</title>
<polygon fill="#ffffb3" stroke="#000000" points="2593.045,-122 2470.955,-122 2470.955,-86 2593.045,-86 2593.045,-122"/>
<text text-anchor="middle" x="2532" y="-99.8" font-family="Times,serif" font-size="14.00" fill="#000000">HiddenComponent</text>
</g>
<!-- HiddenComponent&#45;&gt;AppModule -->
<g id="edge17" class="edge">
<title>HiddenComponent&#45;&gt;AppModule</title>
<path fill="none" stroke="#000000" d="M2532,-122.1061C2532,-122.1061 2532,-140.991 2532,-140.991"/>
<polygon fill="#000000" stroke="#000000" points="2528.5001,-140.9909 2532,-150.991 2535.5001,-140.991 2528.5001,-140.9909"/>
</g>
<!-- HomepageComponent -->
<g id="node18" class="node">
<title>HomepageComponent</title>
<polygon fill="#ffffb3" stroke="#000000" points="2452.9734,-122 2311.0266,-122 2311.0266,-86 2452.9734,-86 2452.9734,-122"/>
<text text-anchor="middle" x="2382" y="-99.8" font-family="Times,serif" font-size="14.00" fill="#000000">HomepageComponent</text>
</g>
<!-- HomepageComponent&#45;&gt;AppModule -->
<g id="edge18" class="edge">
<title>HomepageComponent&#45;&gt;AppModule</title>
<path fill="none" stroke="#000000" d="M2382,-122.0511C2382,-136.373 2382,-154 2382,-154 2382,-154 2480.2166,-154 2480.2166,-154"/>
<polygon fill="#000000" stroke="#000000" points="2480.2167,-157.5001 2490.2166,-154 2480.2166,-150.5001 2480.2167,-157.5001"/>
</g>
<!-- LoginComponent -->
<g id="node19" class="node">
<title>LoginComponent</title>
<polygon fill="#ffffb3" stroke="#000000" points="2293.2758,-122 2178.7242,-122 2178.7242,-86 2293.2758,-86 2293.2758,-122"/>
<text text-anchor="middle" x="2236" y="-99.8" font-family="Times,serif" font-size="14.00" fill="#000000">LoginComponent</text>
</g>
<!-- LoginComponent&#45;&gt;AppModule -->
<g id="edge19" class="edge">
<title>LoginComponent&#45;&gt;AppModule</title>
<path fill="none" stroke="#000000" d="M2236,-122.1871C2236,-137.1824 2236,-156 2236,-156 2236,-156 2480.2182,-156 2480.2182,-156"/>
<polygon fill="#000000" stroke="#000000" points="2480.2183,-159.5001 2490.2182,-156 2480.2182,-152.5001 2480.2183,-159.5001"/>
</g>
<!-- NextPageComponent -->
<g id="node20" class="node">
<title>NextPageComponent</title>
<polygon fill="#ffffb3" stroke="#000000" points="2160.7562,-122 2025.2438,-122 2025.2438,-86 2160.7562,-86 2160.7562,-122"/>
<text text-anchor="middle" x="2093" y="-99.8" font-family="Times,serif" font-size="14.00" fill="#000000">NextPageComponent</text>
</g>
<!-- NextPageComponent&#45;&gt;AppModule -->
<g id="edge20" class="edge">
<title>NextPageComponent&#45;&gt;AppModule</title>
<path fill="none" stroke="#000000" d="M2093,-122.2819C2093,-137.9478 2093,-158 2093,-158 2093,-158 2480.3042,-158 2480.3042,-158"/>
<polygon fill="#000000" stroke="#000000" points="2480.3042,-161.5001 2490.3042,-158 2480.3041,-154.5001 2480.3042,-161.5001"/>
</g>
<!-- OverviewComponent -->
<g id="node21" class="node">
<title>OverviewComponent</title>
<polygon fill="#ffffb3" stroke="#000000" points="2007.0268,-122 1870.9732,-122 1870.9732,-86 2007.0268,-86 2007.0268,-122"/>
<text text-anchor="middle" x="1939" y="-99.8" font-family="Times,serif" font-size="14.00" fill="#000000">OverviewComponent</text>
</g>
<!-- OverviewComponent&#45;&gt;AppModule -->
<g id="edge21" class="edge">
<title>OverviewComponent&#45;&gt;AppModule</title>
<path fill="none" stroke="#000000" d="M1939,-122.027C1939,-138.3976 1939,-160 1939,-160 1939,-160 2480.3014,-160 2480.3014,-160"/>
<polygon fill="#000000" stroke="#000000" points="2480.3014,-163.5001 2490.3014,-160 2480.3014,-156.5001 2480.3014,-163.5001"/>
</g>
<!-- PostLayoutComponent -->
<g id="node22" class="node">
<title>PostLayoutComponent</title>
<polygon fill="#ffffb3" stroke="#000000" points="1852.608,-122 1707.392,-122 1707.392,-86 1852.608,-86 1852.608,-122"/>
<text text-anchor="middle" x="1780" y="-99.8" font-family="Times,serif" font-size="14.00" fill="#000000">PostLayoutComponent</text>
</g>
<!-- PostLayoutComponent&#45;&gt;AppModule -->
<g id="edge22" class="edge">
<title>PostLayoutComponent&#45;&gt;AppModule</title>
<path fill="none" stroke="#000000" d="M1780,-122.0336C1780,-139.0597 1780,-162 1780,-162 1780,-162 2480.2283,-162 2480.2283,-162"/>
<polygon fill="#000000" stroke="#000000" points="2480.2284,-165.5001 2490.2283,-162 2480.2283,-158.5001 2480.2284,-165.5001"/>
</g>
<!-- PostsComponent -->
<g id="node23" class="node">
<title>PostsComponent</title>
<polygon fill="#ffffb3" stroke="#000000" points="1689.3948,-122 1578.6052,-122 1578.6052,-86 1689.3948,-86 1689.3948,-122"/>
<text text-anchor="middle" x="1634" y="-99.8" font-family="Times,serif" font-size="14.00" fill="#000000">PostsComponent</text>
</g>
<!-- PostsComponent&#45;&gt;AppModule -->
<g id="edge23" class="edge">
<title>PostsComponent&#45;&gt;AppModule</title>
<path fill="none" stroke="#000000" d="M1634,-122.002C1634,-139.6754 1634,-164 1634,-164 1634,-164 2480.1908,-164 2480.1908,-164"/>
<polygon fill="#000000" stroke="#000000" points="2480.1908,-167.5001 2490.1908,-164 2480.1908,-160.5001 2480.1908,-167.5001"/>
</g>
<!-- PrivacyComponent -->
<g id="node24" class="node">
<title>PrivacyComponent</title>
<polygon fill="#ffffb3" stroke="#000000" points="1561.0954,-122 1436.9046,-122 1436.9046,-86 1561.0954,-86 1561.0954,-122"/>
<text text-anchor="middle" x="1499" y="-99.8" font-family="Times,serif" font-size="14.00" fill="#000000">PrivacyComponent</text>
</g>
<!-- PrivacyComponent&#45;&gt;AppModule -->
<g id="edge24" class="edge">
<title>PrivacyComponent&#45;&gt;AppModule</title>
<path fill="none" stroke="#000000" d="M1499,-122.2667C1499,-140.5552 1499,-166 1499,-166 1499,-166 2480.2258,-166 2480.2258,-166"/>
<polygon fill="#000000" stroke="#000000" points="2480.2258,-169.5001 2490.2258,-166 2480.2257,-162.5001 2480.2258,-169.5001"/>
</g>
<!-- ProfileComponent -->
<g id="node25" class="node">
<title>ProfileComponent</title>
<polygon fill="#ffffb3" stroke="#000000" points="1418.9328,-122 1299.0672,-122 1299.0672,-86 1418.9328,-86 1418.9328,-122"/>
<text text-anchor="middle" x="1359" y="-99.8" font-family="Times,serif" font-size="14.00" fill="#000000">ProfileComponent</text>
</g>
<!-- ProfileComponent&#45;&gt;AppModule -->
<g id="edge25" class="edge">
<title>ProfileComponent&#45;&gt;AppModule</title>
<path fill="none" stroke="#000000" d="M1359,-122.1686C1359,-141.0898 1359,-168 1359,-168 1359,-168 2480.2523,-168 2480.2523,-168"/>
<polygon fill="#000000" stroke="#000000" points="2480.2523,-171.5001 2490.2523,-168 2480.2523,-164.5001 2480.2523,-171.5001"/>
</g>
<!-- ProfileSettingComponent -->
<g id="node26" class="node">
<title>ProfileSettingComponent</title>
<polygon fill="#ffffb3" stroke="#000000" points="1281.601,-122 1122.399,-122 1122.399,-86 1281.601,-86 1281.601,-122"/>
<text text-anchor="middle" x="1202" y="-99.8" font-family="Times,serif" font-size="14.00" fill="#000000">ProfileSettingComponent</text>
</g>
<!-- ProfileSettingComponent&#45;&gt;AppModule -->
<g id="edge26" class="edge">
<title>ProfileSettingComponent&#45;&gt;AppModule</title>
<path fill="none" stroke="#000000" d="M1202,-122.308C1202,-142.1455 1202,-171 1202,-171 1202,-171 2479.9991,-171 2479.9991,-171"/>
<polygon fill="#000000" stroke="#000000" points="2479.9991,-174.5001 2489.9991,-171 2479.9991,-167.5001 2479.9991,-174.5001"/>
</g>
<!-- SavedComponent -->
<g id="node27" class="node">
<title>SavedComponent</title>
<polygon fill="#ffffb3" stroke="#000000" points="1104.5451,-122 989.4549,-122 989.4549,-86 1104.5451,-86 1104.5451,-122"/>
<text text-anchor="middle" x="1047" y="-99.8" font-family="Times,serif" font-size="14.00" fill="#000000">SavedComponent</text>
</g>
<!-- SavedComponent&#45;&gt;AppModule -->
<g id="edge27" class="edge">
<title>SavedComponent&#45;&gt;AppModule</title>
<path fill="none" stroke="#000000" d="M1047,-122.1289C1047,-142.5724 1047,-173 1047,-173 1047,-173 2480.3417,-173 2480.3417,-173"/>
<polygon fill="#000000" stroke="#000000" points="2480.3417,-176.5001 2490.3417,-173 2480.3416,-169.5001 2480.3417,-176.5001"/>
</g>
<!-- SignupComponent -->
<g id="node28" class="node">
<title>SignupComponent</title>
<polygon fill="#ffffb3" stroke="#000000" points="971.5056,-122 850.4944,-122 850.4944,-86 971.5056,-86 971.5056,-122"/>
<text text-anchor="middle" x="911" y="-99.8" font-family="Times,serif" font-size="14.00" fill="#000000">SignupComponent</text>
</g>
<!-- SignupComponent&#45;&gt;AppModule -->
<g id="edge28" class="edge">
<title>SignupComponent&#45;&gt;AppModule</title>
<path fill="none" stroke="#000000" d="M911,-122.2843C911,-143.3211 911,-175 911,-175 911,-175 2480.3011,-175 2480.3011,-175"/>
<polygon fill="#000000" stroke="#000000" points="2480.3012,-178.5001 2490.3011,-175 2480.3011,-171.5001 2480.3012,-178.5001"/>
</g>
<!-- UpvotedComponent -->
<g id="node29" class="node">
<title>UpvotedComponent</title>
<polygon fill="#ffffb3" stroke="#000000" points="832.545,-122 703.455,-122 703.455,-86 832.545,-86 832.545,-122"/>
<text text-anchor="middle" x="768" y="-99.8" font-family="Times,serif" font-size="14.00" fill="#000000">UpvotedComponent</text>
</g>
<!-- UpvotedComponent&#45;&gt;AppModule -->
<g id="edge29" class="edge">
<title>UpvotedComponent&#45;&gt;AppModule</title>
<path fill="none" stroke="#000000" d="M768,-122.0449C768,-143.6623 768,-177 768,-177 768,-177 2480.1351,-177 2480.1351,-177"/>
<polygon fill="#000000" stroke="#000000" points="2480.1352,-180.5001 2490.1351,-177 2480.1351,-173.5001 2480.1352,-180.5001"/>
</g>
<!-- UserHeaderComponent -->
<g id="node30" class="node">
<title>UserHeaderComponent</title>
<polygon fill="#ffffb3" stroke="#000000" points="685.1699,-122 536.8301,-122 536.8301,-86 685.1699,-86 685.1699,-122"/>
<text text-anchor="middle" x="611" y="-99.8" font-family="Times,serif" font-size="14.00" fill="#000000">UserHeaderComponent</text>
</g>
<!-- UserHeaderComponent&#45;&gt;AppModule -->
<g id="edge30" class="edge">
<title>UserHeaderComponent&#45;&gt;AppModule</title>
<path fill="none" stroke="#000000" d="M611,-122.1554C611,-144.3519 611,-179 611,-179 611,-179 2480.0907,-179 2480.0907,-179"/>
<polygon fill="#000000" stroke="#000000" points="2480.0907,-182.5001 2490.0907,-179 2480.0906,-175.5001 2480.0907,-182.5001"/>
</g>
<!-- UserSettingsComponent -->
<g id="node31" class="node">
<title>UserSettingsComponent</title>
<polygon fill="#ffffb3" stroke="#000000" points="518.3725,-122 365.6275,-122 365.6275,-86 518.3725,-86 518.3725,-122"/>
<text text-anchor="middle" x="442" y="-99.8" font-family="Times,serif" font-size="14.00" fill="#000000">UserSettingsComponent</text>
</g>
<!-- UserSettingsComponent&#45;&gt;AppModule -->
<g id="edge31" class="edge">
<title>UserSettingsComponent&#45;&gt;AppModule</title>
<path fill="none" stroke="#000000" d="M442,-122.2479C442,-145.0179 442,-181 442,-181 442,-181 2480.2515,-181 2480.2515,-181"/>
<polygon fill="#000000" stroke="#000000" points="2480.2515,-184.5001 2490.2515,-181 2480.2514,-177.5001 2480.2515,-184.5001"/>
</g>
<!-- ViewSinglePostComponent -->
<g id="node32" class="node">
<title>ViewSinglePostComponent</title>
<polygon fill="#ffffb3" stroke="#000000" points="347.5476,-122 176.4524,-122 176.4524,-86 347.5476,-86 347.5476,-122"/>
<text text-anchor="middle" x="262" y="-99.8" font-family="Times,serif" font-size="14.00" fill="#000000">ViewSinglePostComponent</text>
</g>
<!-- ViewSinglePostComponent&#45;&gt;AppModule -->
<g id="edge32" class="edge">
<title>ViewSinglePostComponent&#45;&gt;AppModule</title>
<path fill="none" stroke="#000000" d="M262,-122.3228C262,-145.6602 262,-183 262,-183 262,-183 2480.1709,-183 2480.1709,-183"/>
<polygon fill="#000000" stroke="#000000" points="2480.1709,-186.5001 2490.1709,-183 2480.1708,-179.5001 2480.1709,-186.5001"/>
</g>
<!-- AppComponent  -->
<g id="node35" class="node">
<title>AppComponent </title>
<polygon fill="#80b1d3" stroke="#000000" points="2586.439,-252 2477.561,-252 2477.561,-216 2586.439,-216 2586.439,-252"/>
<text text-anchor="middle" x="2532" y="-229.8" font-family="Times,serif" font-size="14.00" fill="#000000">AppComponent </text>
</g>
<!-- AppModule&#45;&gt;AppComponent  -->
<g id="edge34" class="edge">
<title>AppModule&#45;&gt;AppComponent </title>
<path fill="none" stroke="#000000" stroke-dasharray="1,5" d="M2532,-187.1061C2532,-187.1061 2532,-205.991 2532,-205.991"/>
<polygon fill="#000000" stroke="#000000" points="2528.5001,-205.9909 2532,-215.991 2535.5001,-205.991 2528.5001,-205.9909"/>
</g>
<!-- AppRoutingModule -->
<g id="node34" class="node">
<title>AppRoutingModule</title>
<polygon fill="#8dd3c7" stroke="#000000" points="152.2744,-122 149.2744,-126 128.2744,-126 125.2744,-122 23.7256,-122 23.7256,-86 152.2744,-86 152.2744,-122"/>
<text text-anchor="middle" x="88" y="-99.8" font-family="Times,serif" font-size="14.00" fill="#000000">AppRoutingModule</text>
</g>
<!-- AppRoutingModule&#45;&gt;AppModule -->
<g id="edge33" class="edge">
<title>AppRoutingModule&#45;&gt;AppModule</title>
<path fill="none" stroke="#000000" d="M88,-122.3802C88,-146.2785 88,-185 88,-185 88,-185 2480.094,-185 2480.094,-185"/>
<polygon fill="#000000" stroke="#000000" points="2480.094,-188.5001 2490.094,-185 2480.094,-181.5001 2480.094,-188.5001"/>
</g>
</g>
</svg>
