<?xml version="1.0" encoding="UTF-8" standalone="no"?>
<!DOCTYPE svg PUBLIC "-//W3C//DTD SVG 1.1//EN"
 "http://www.w3.org/Graphics/SVG/1.1/DTD/svg11.dtd">
<!-- Generated by graphviz version 2.40.1 (20161225.0304)
 -->
<!-- Title: dependencies Pages: 1 -->
<svg width="5961pt" height="284pt"
 viewBox="0.00 0.00 5961.00 284.00" xmlns="http://www.w3.org/2000/svg" xmlns:xlink="http://www.w3.org/1999/xlink">
<g id="graph0" class="graph" transform="scale(1 1) rotate(0) translate(4 280)">
<title>dependencies</title>
<polygon fill="#ffffff" stroke="transparent" points="-4,4 -4,-280 5957,-280 5957,4 -4,4"/>
<text text-anchor="start" x="2955.5091" y="-42.4" font-family="sans-serif" font-weight="bold" font-size="14.00" fill="#000000">Legend</text>
<polygon fill="#ffffb3" stroke="transparent" points="2742.5,-10 2742.5,-30 2762.5,-30 2762.5,-10 2742.5,-10"/>
<text text-anchor="start" x="2766.129" y="-15.4" font-family="sans-serif" font-size="14.00" fill="#000000"> &#160;Declarations</text>
<polygon fill="#8dd3c7" stroke="transparent" points="2855.5,-10 2855.5,-30 2875.5,-30 2875.5,-10 2855.5,-10"/>
<text text-anchor="start" x="2879.2251" y="-15.4" font-family="sans-serif" font-size="14.00" fill="#000000"> &#160;Module</text>
<polygon fill="#80b1d3" stroke="transparent" points="2941.5,-10 2941.5,-30 2961.5,-30 2961.5,-10 2941.5,-10"/>
<text text-anchor="start" x="2965.2812" y="-15.4" font-family="sans-serif" font-size="14.00" fill="#000000"> &#160;Bootstrap</text>
<polygon fill="#fdb462" stroke="transparent" points="3038.5,-10 3038.5,-30 3058.5,-30 3058.5,-10 3038.5,-10"/>
<text text-anchor="start" x="3062.1732" y="-15.4" font-family="sans-serif" font-size="14.00" fill="#000000"> &#160;Providers</text>
<polygon fill="#fb8072" stroke="transparent" points="3134.5,-10 3134.5,-30 3154.5,-30 3154.5,-10 3134.5,-10"/>
<text text-anchor="start" x="3158.2258" y="-15.4" font-family="sans-serif" font-size="14.00" fill="#000000"> &#160;Exports</text>
<g id="clust1" class="cluster">
<title>cluster_AppModule</title>
<polygon fill="none" stroke="#000000" stroke-dasharray="1,5" points="8,-70 8,-268 5945,-268 5945,-70 8,-70"/>
</g>
<g id="clust2" class="cluster">
<title>cluster_AppModule_declarations</title>
<polygon fill="none" stroke="#000000" points="2624,-78 2624,-130 5937,-130 5937,-78 2624,-78"/>
</g>
<g id="clust24" class="cluster">
<title>cluster_AppModule_imports</title>
<polygon fill="none" stroke="#000000" points="16,-78 16,-130 2616,-130 2616,-78 16,-78"/>
</g>
<g id="clust26" class="cluster">
<title>cluster_AppModule_bootstrap</title>
<polygon fill="none" stroke="#000000" points="2752,-208 2752,-260 2876,-260 2876,-208 2752,-208"/>
</g>
<!-- AppComponent -->
<g id="node1" class="node">
<title>AppComponent</title>
<polygon fill="#ffffb3" stroke="#000000" points="5928.9399,-122 5823.0601,-122 5823.0601,-86 5928.9399,-86 5928.9399,-122"/>
<text text-anchor="middle" x="5876" y="-99.8" font-family="Times,serif" font-size="14.00" fill="#000000">AppComponent</text>
</g>
<!-- AppModule -->
<g id="node22" class="node">
<title>AppModule</title>
<polygon fill="#8dd3c7" stroke="#000000" points="2855.6571,-187 2852.6571,-191 2831.6571,-191 2828.6571,-187 2772.3429,-187 2772.3429,-151 2855.6571,-151 2855.6571,-187"/>
<text text-anchor="middle" x="2814" y="-164.8" font-family="Times,serif" font-size="14.00" fill="#000000">AppModule</text>
</g>
<!-- AppComponent&#45;&gt;AppModule -->
<g id="edge1" class="edge">
<title>AppComponent&#45;&gt;AppModule</title>
<path fill="none" stroke="#000000" d="M5876,-122.1985C5876,-146.3563 5876,-186 5876,-186 5876,-186 2865.8312,-186 2865.8312,-186"/>
<polygon fill="#000000" stroke="#000000" points="2865.8312,-182.5001 2855.8312,-186 2865.8311,-189.5001 2865.8312,-182.5001"/>
</g>
<!-- HeaderComponent -->
<g id="node2" class="node">
<title>HeaderComponent</title>
<polygon fill="#ffffb3" stroke="#000000" points="5804.7437,-122 5683.2563,-122 5683.2563,-86 5804.7437,-86 5804.7437,-122"/>
<text text-anchor="middle" x="5744" y="-99.8" font-family="Times,serif" font-size="14.00" fill="#000000">HeaderComponent</text>
</g>
<!-- HeaderComponent&#45;&gt;AppModule -->
<g id="edge2" class="edge">
<title>HeaderComponent&#45;&gt;AppModule</title>
<path fill="none" stroke="#000000" d="M5744,-122.1532C5744,-145.7566 5744,-184 5744,-184 5744,-184 2865.7004,-184 2865.7004,-184"/>
<polygon fill="#000000" stroke="#000000" points="2865.7004,-180.5001 2855.7004,-184 2865.7004,-187.5001 2865.7004,-180.5001"/>
</g>
<!-- UserHeaderComponent -->
<g id="node3" class="node">
<title>UserHeaderComponent</title>
<polygon fill="#ffffb3" stroke="#000000" points="5665.1699,-122 5516.8301,-122 5516.8301,-86 5665.1699,-86 5665.1699,-122"/>
<text text-anchor="middle" x="5591" y="-99.8" font-family="Times,serif" font-size="14.00" fill="#000000">UserHeaderComponent</text>
</g>
<!-- UserHeaderComponent&#45;&gt;AppModule -->
<g id="edge3" class="edge">
<title>UserHeaderComponent&#45;&gt;AppModule</title>
<path fill="none" stroke="#000000" d="M5591,-122.0908C5591,-145.1328 5591,-182 5591,-182 5591,-182 2865.6843,-182 2865.6843,-182"/>
<polygon fill="#000000" stroke="#000000" points="2865.6843,-178.5001 2855.6843,-182 2865.6842,-185.5001 2865.6843,-178.5001"/>
</g>
<!-- CommunityComponent -->
<g id="node4" class="node">
<title>CommunityComponent</title>
<polygon fill="#ffffb3" stroke="#000000" points="5499.2316,-122 5350.7684,-122 5350.7684,-86 5499.2316,-86 5499.2316,-122"/>
<text text-anchor="middle" x="5425" y="-99.8" font-family="Times,serif" font-size="14.00" fill="#000000">CommunityComponent</text>
</g>
<!-- CommunityComponent&#45;&gt;AppModule -->
<g id="edge4" class="edge">
<title>CommunityComponent&#45;&gt;AppModule</title>
<path fill="none" stroke="#000000" d="M5425,-122.0109C5425,-144.4852 5425,-180 5425,-180 5425,-180 2865.8045,-180 2865.8045,-180"/>
<polygon fill="#000000" stroke="#000000" points="2865.8046,-176.5001 2855.8045,-180 2865.8045,-183.5001 2865.8046,-176.5001"/>
</g>
<!-- ProfileComponent -->
<g id="node5" class="node">
<title>ProfileComponent</title>
<polygon fill="#ffffb3" stroke="#000000" points="5332.9328,-122 5213.0672,-122 5213.0672,-86 5332.9328,-86 5332.9328,-122"/>
<text text-anchor="middle" x="5273" y="-99.8" font-family="Times,serif" font-size="14.00" fill="#000000">ProfileComponent</text>
</g>
<!-- ProfileComponent&#45;&gt;AppModule -->
<g id="edge5" class="edge">
<title>ProfileComponent&#45;&gt;AppModule</title>
<path fill="none" stroke="#000000" d="M5273,-122.2921C5273,-144.2057 5273,-178 5273,-178 5273,-178 2865.9056,-178 2865.9056,-178"/>
<polygon fill="#000000" stroke="#000000" points="2865.9057,-174.5001 2855.9056,-178 2865.9056,-181.5001 2865.9057,-174.5001"/>
</g>
<!-- PostLayoutComponent -->
<g id="node6" class="node">
<title>PostLayoutComponent</title>
<polygon fill="#ffffb3" stroke="#000000" points="5195.608,-122 5050.392,-122 5050.392,-86 5195.608,-86 5195.608,-122"/>
<text text-anchor="middle" x="5123" y="-99.8" font-family="Times,serif" font-size="14.00" fill="#000000">PostLayoutComponent</text>
</g>
<!-- PostLayoutComponent&#45;&gt;AppModule -->
<g id="edge6" class="edge">
<title>PostLayoutComponent&#45;&gt;AppModule</title>
<path fill="none" stroke="#000000" d="M5123,-122.0449C5123,-143.6623 5123,-177 5123,-177 5123,-177 2866.0481,-177 2866.0481,-177"/>
<polygon fill="#000000" stroke="#000000" points="2866.0481,-173.5001 2856.0481,-177 2866.048,-180.5001 2866.0481,-173.5001"/>
</g>
<!-- LoginComponent -->
<g id="node7" class="node">
<title>LoginComponent</title>
<polygon fill="#ffffb3" stroke="#000000" points="5032.2758,-122 4917.7242,-122 4917.7242,-86 5032.2758,-86 5032.2758,-122"/>
<text text-anchor="middle" x="4975" y="-99.8" font-family="Times,serif" font-size="14.00" fill="#000000">LoginComponent</text>
</g>
<!-- LoginComponent&#45;&gt;AppModule -->
<g id="edge7" class="edge">
<title>LoginComponent&#45;&gt;AppModule</title>
<path fill="none" stroke="#000000" d="M4975,-122.2843C4975,-143.3211 4975,-175 4975,-175 4975,-175 2865.7172,-175 2865.7172,-175"/>
<polygon fill="#000000" stroke="#000000" points="2865.7173,-171.5001 2855.7172,-175 2865.7172,-178.5001 2865.7173,-171.5001"/>
</g>
<!-- SignupComponent -->
<g id="node8" class="node">
<title>SignupComponent</title>
<polygon fill="#ffffb3" stroke="#000000" points="4899.5056,-122 4778.4944,-122 4778.4944,-86 4899.5056,-86 4899.5056,-122"/>
<text text-anchor="middle" x="4839" y="-99.8" font-family="Times,serif" font-size="14.00" fill="#000000">SignupComponent</text>
</g>
<!-- SignupComponent&#45;&gt;AppModule -->
<g id="edge8" class="edge">
<title>SignupComponent&#45;&gt;AppModule</title>
<path fill="none" stroke="#000000" d="M4839,-122.1289C4839,-142.5724 4839,-173 4839,-173 4839,-173 2865.8302,-173 2865.8302,-173"/>
<polygon fill="#000000" stroke="#000000" points="2865.8302,-169.5001 2855.8302,-173 2865.8301,-176.5001 2865.8302,-169.5001"/>
</g>
<!-- EditCommunityComponent -->
<g id="node9" class="node">
<title>EditCommunityComponent</title>
<polygon fill="#ffffb3" stroke="#000000" points="4760.5657,-122 4589.4343,-122 4589.4343,-86 4760.5657,-86 4760.5657,-122"/>
<text text-anchor="middle" x="4675" y="-99.8" font-family="Times,serif" font-size="14.00" fill="#000000">EditCommunityComponent</text>
</g>
<!-- EditCommunityComponent&#45;&gt;AppModule -->
<g id="edge9" class="edge">
<title>EditCommunityComponent&#45;&gt;AppModule</title>
<path fill="none" stroke="#000000" d="M4675,-122.308C4675,-142.1455 4675,-171 4675,-171 4675,-171 2865.9214,-171 2865.9214,-171"/>
<polygon fill="#000000" stroke="#000000" points="2865.9215,-167.5001 2855.9214,-171 2865.9214,-174.5001 2865.9215,-167.5001"/>
</g>
<!-- UserSettingsComponent -->
<g id="node10" class="node">
<title>UserSettingsComponent</title>
<polygon fill="#ffffb3" stroke="#000000" points="4571.3725,-122 4418.6275,-122 4418.6275,-86 4571.3725,-86 4571.3725,-122"/>
<text text-anchor="middle" x="4495" y="-99.8" font-family="Times,serif" font-size="14.00" fill="#000000">UserSettingsComponent</text>
</g>
<!-- UserSettingsComponent&#45;&gt;AppModule -->
<g id="edge10" class="edge">
<title>UserSettingsComponent&#45;&gt;AppModule</title>
<path fill="none" stroke="#000000" d="M4495,-122.1061C4495,-141.3391 4495,-169 4495,-169 4495,-169 2865.9724,-169 2865.9724,-169"/>
<polygon fill="#000000" stroke="#000000" points="2865.9725,-165.5001 2855.9724,-169 2865.9724,-172.5001 2865.9725,-165.5001"/>
</g>
<!-- AccountSettingComponent -->
<g id="node11" class="node">
<title>AccountSettingComponent</title>
<polygon fill="#ffffb3" stroke="#000000" points="4400.4283,-122 4231.5717,-122 4231.5717,-86 4400.4283,-86 4400.4283,-122"/>
<text text-anchor="middle" x="4316" y="-99.8" font-family="Times,serif" font-size="14.00" fill="#000000">AccountSettingComponent</text>
</g>
<!-- AccountSettingComponent&#45;&gt;AppModule -->
<g id="edge11" class="edge">
<title>AccountSettingComponent&#45;&gt;AppModule</title>
<path fill="none" stroke="#000000" d="M4316,-122.1686C4316,-141.0898 4316,-168 4316,-168 4316,-168 2865.7397,-168 2865.7397,-168"/>
<polygon fill="#000000" stroke="#000000" points="2865.7398,-164.5001 2855.7397,-168 2865.7397,-171.5001 2865.7398,-164.5001"/>
</g>
<!-- ProfileSettingComponent -->
<g id="node12" class="node">
<title>ProfileSettingComponent</title>
<polygon fill="#ffffb3" stroke="#000000" points="4213.601,-122 4054.399,-122 4054.399,-86 4213.601,-86 4213.601,-122"/>
<text text-anchor="middle" x="4134" y="-99.8" font-family="Times,serif" font-size="14.00" fill="#000000">ProfileSettingComponent</text>
</g>
<!-- ProfileSettingComponent&#45;&gt;AppModule -->
<g id="edge12" class="edge">
<title>ProfileSettingComponent&#45;&gt;AppModule</title>
<path fill="none" stroke="#000000" d="M4134,-122.2667C4134,-140.5552 4134,-166 4134,-166 4134,-166 2865.6851,-166 2865.6851,-166"/>
<polygon fill="#000000" stroke="#000000" points="2865.6852,-162.5001 2855.6851,-166 2865.6851,-169.5001 2865.6852,-162.5001"/>
</g>
<!-- ForgotUsernameComponent -->
<g id="node13" class="node">
<title>ForgotUsernameComponent</title>
<polygon fill="#ffffb3" stroke="#000000" points="4036.9129,-122 3861.0871,-122 3861.0871,-86 4036.9129,-86 4036.9129,-122"/>
<text text-anchor="middle" x="3949" y="-99.8" font-family="Times,serif" font-size="14.00" fill="#000000">ForgotUsernameComponent</text>
</g>
<!-- ForgotUsernameComponent&#45;&gt;AppModule -->
<g id="edge13" class="edge">
<title>ForgotUsernameComponent&#45;&gt;AppModule</title>
<path fill="none" stroke="#000000" d="M3949,-122.002C3949,-139.6754 3949,-164 3949,-164 3949,-164 2865.7413,-164 2865.7413,-164"/>
<polygon fill="#000000" stroke="#000000" points="2865.7414,-160.5001 2855.7413,-164 2865.7413,-167.5001 2865.7414,-160.5001"/>
</g>
<!-- OverviewComponent -->
<g id="node14" class="node">
<title>OverviewComponent</title>
<polygon fill="#ffffb3" stroke="#000000" points="3843.0268,-122 3706.9732,-122 3706.9732,-86 3843.0268,-86 3843.0268,-122"/>
<text text-anchor="middle" x="3775" y="-99.8" font-family="Times,serif" font-size="14.00" fill="#000000">OverviewComponent</text>
</g>
<!-- OverviewComponent&#45;&gt;AppModule -->
<g id="edge14" class="edge">
<title>OverviewComponent&#45;&gt;AppModule</title>
<path fill="none" stroke="#000000" d="M3775,-122.0336C3775,-139.0597 3775,-162 3775,-162 3775,-162 2865.9109,-162 2865.9109,-162"/>
<polygon fill="#000000" stroke="#000000" points="2865.9109,-158.5001 2855.9109,-162 2865.9109,-165.5001 2865.9109,-158.5001"/>
</g>
<!-- PostsComponent -->
<g id="node15" class="node">
<title>PostsComponent</title>
<polygon fill="#ffffb3" stroke="#000000" points="3688.3948,-122 3577.6052,-122 3577.6052,-86 3688.3948,-86 3688.3948,-122"/>
<text text-anchor="middle" x="3633" y="-99.8" font-family="Times,serif" font-size="14.00" fill="#000000">PostsComponent</text>
</g>
<!-- PostsComponent&#45;&gt;AppModule -->
<g id="edge15" class="edge">
<title>PostsComponent&#45;&gt;AppModule</title>
<path fill="none" stroke="#000000" d="M3633,-122.027C3633,-138.3976 3633,-160 3633,-160 3633,-160 2865.7403,-160 2865.7403,-160"/>
<polygon fill="#000000" stroke="#000000" points="2865.7403,-156.5001 2855.7403,-160 2865.7403,-163.5001 2865.7403,-156.5001"/>
</g>
<!-- CommentsComponent -->
<g id="node16" class="node">
<title>CommentsComponent</title>
<polygon fill="#ffffb3" stroke="#000000" points="3560,-122 3418,-122 3418,-86 3560,-86 3560,-122"/>
<text text-anchor="middle" x="3489" y="-99.8" font-family="Times,serif" font-size="14.00" fill="#000000">CommentsComponent</text>
</g>
<!-- CommentsComponent&#45;&gt;AppModule -->
<g id="edge16" class="edge">
<title>CommentsComponent&#45;&gt;AppModule</title>
<path fill="none" stroke="#000000" d="M3489,-122.0091C3489,-138.0494 3489,-159 3489,-159 3489,-159 2865.7149,-159 2865.7149,-159"/>
<polygon fill="#000000" stroke="#000000" points="2865.7149,-155.5001 2855.7149,-159 2865.7148,-162.5001 2865.7149,-155.5001"/>
</g>
<!-- SavedComponent -->
<g id="node17" class="node">
<title>SavedComponent</title>
<polygon fill="#ffffb3" stroke="#000000" points="3399.5451,-122 3284.4549,-122 3284.4549,-86 3399.5451,-86 3399.5451,-122"/>
<text text-anchor="middle" x="3342" y="-99.8" font-family="Times,serif" font-size="14.00" fill="#000000">SavedComponent</text>
</g>
<!-- SavedComponent&#45;&gt;AppModule -->
<g id="edge17" class="edge">
<title>SavedComponent&#45;&gt;AppModule</title>
<path fill="none" stroke="#000000" d="M3342,-122.2396C3342,-137.5706 3342,-157 3342,-157 3342,-157 2865.8726,-157 2865.8726,-157"/>
<polygon fill="#000000" stroke="#000000" points="2865.8726,-153.5001 2855.8726,-157 2865.8726,-160.5001 2865.8726,-153.5001"/>
</g>
<!-- HiddenComponent -->
<g id="node18" class="node">
<title>HiddenComponent</title>
<polygon fill="#ffffb3" stroke="#000000" points="3266.045,-122 3143.955,-122 3143.955,-86 3266.045,-86 3266.045,-122"/>
<text text-anchor="middle" x="3205" y="-99.8" font-family="Times,serif" font-size="14.00" fill="#000000">HiddenComponent</text>
</g>
<!-- HiddenComponent&#45;&gt;AppModule -->
<g id="edge18" class="edge">
<title>HiddenComponent&#45;&gt;AppModule</title>
<path fill="none" stroke="#000000" d="M3205,-122.1243C3205,-136.7832 3205,-155 3205,-155 3205,-155 2865.8438,-155 2865.8438,-155"/>
<polygon fill="#000000" stroke="#000000" points="2865.8439,-151.5001 2855.8438,-155 2865.8438,-158.5001 2865.8439,-151.5001"/>
</g>
<!-- UpvotedComponent -->
<g id="node19" class="node">
<title>UpvotedComponent</title>
<polygon fill="#ffffb3" stroke="#000000" points="3125.545,-122 2996.455,-122 2996.455,-86 3125.545,-86 3125.545,-122"/>
<text text-anchor="middle" x="3061" y="-99.8" font-family="Times,serif" font-size="14.00" fill="#000000">UpvotedComponent</text>
</g>
<!-- UpvotedComponent&#45;&gt;AppModule -->
<g id="edge19" class="edge">
<title>UpvotedComponent&#45;&gt;AppModule</title>
<path fill="none" stroke="#000000" d="M3061,-122.2458C3061,-136.1772 3061,-153 3061,-153 3061,-153 2865.9002,-153 2865.9002,-153"/>
<polygon fill="#000000" stroke="#000000" points="2865.9002,-149.5001 2855.9002,-153 2865.9001,-156.5001 2865.9002,-149.5001"/>
</g>
<!-- DownvotedComponent -->
<g id="node20" class="node">
<title>DownvotedComponent</title>
<polygon fill="#ffffb3" stroke="#000000" points="2978.1512,-122 2831.8488,-122 2831.8488,-86 2978.1512,-86 2978.1512,-122"/>
<text text-anchor="middle" x="2905" y="-99.8" font-family="Times,serif" font-size="14.00" fill="#000000">DownvotedComponent</text>
</g>
<!-- DownvotedComponent&#45;&gt;AppModule -->
<g id="edge20" class="edge">
<title>DownvotedComponent&#45;&gt;AppModule</title>
<path fill="none" stroke="#000000" d="M2843.7514,-122.1061C2843.7514,-122.1061 2843.7514,-140.991 2843.7514,-140.991"/>
<polygon fill="#000000" stroke="#000000" points="2840.2515,-140.9909 2843.7514,-150.991 2847.2515,-140.991 2840.2515,-140.9909"/>
</g>
<!-- CommentsLayoutComponent -->
<g id="node21" class="node">
<title>CommentsLayoutComponent</title>
<polygon fill="#ffffb3" stroke="#000000" points="2813.6581,-122 2632.3419,-122 2632.3419,-86 2813.6581,-86 2813.6581,-122"/>
<text text-anchor="middle" x="2723" y="-99.8" font-family="Times,serif" font-size="14.00" fill="#000000">CommentsLayoutComponent</text>
</g>
<!-- CommentsLayoutComponent&#45;&gt;AppModule -->
<g id="edge21" class="edge">
<title>CommentsLayoutComponent&#45;&gt;AppModule</title>
<path fill="none" stroke="#000000" d="M2793.0004,-122.1061C2793.0004,-122.1061 2793.0004,-140.991 2793.0004,-140.991"/>
<polygon fill="#000000" stroke="#000000" points="2789.5004,-140.9909 2793.0004,-150.991 2796.5004,-140.991 2789.5004,-140.9909"/>
</g>
<!-- AppComponent  -->
<g id="node41" class="node">
<title>AppComponent </title>
<polygon fill="#80b1d3" stroke="#000000" points="2868.439,-252 2759.561,-252 2759.561,-216 2868.439,-216 2868.439,-252"/>
<text text-anchor="middle" x="2814" y="-229.8" font-family="Times,serif" font-size="14.00" fill="#000000">AppComponent </text>
</g>
<!-- AppModule&#45;&gt;AppComponent  -->
<g id="edge41" class="edge">
<title>AppModule&#45;&gt;AppComponent </title>
<path fill="none" stroke="#000000" stroke-dasharray="1,5" d="M2814,-187.1061C2814,-187.1061 2814,-205.991 2814,-205.991"/>
<polygon fill="#000000" stroke="#000000" points="2810.5001,-205.9909 2814,-215.991 2817.5001,-205.991 2810.5001,-205.9909"/>
</g>
<!-- BrowserModule -->
<g id="node23" class="node">
<title>BrowserModule</title>
<polygon fill="#8dd3c7" stroke="#000000" points="2608.4734,-122 2605.4734,-126 2584.4734,-126 2581.4734,-122 2501.5266,-122 2501.5266,-86 2608.4734,-86 2608.4734,-122"/>
<text text-anchor="middle" x="2555" y="-99.8" font-family="Times,serif" font-size="14.00" fill="#000000">BrowserModule</text>
</g>
<!-- BrowserModule&#45;&gt;AppModule -->
<g id="edge22" class="edge">
<title>BrowserModule&#45;&gt;AppModule</title>
<path fill="none" stroke="#000000" d="M2555,-122.2458C2555,-136.1772 2555,-153 2555,-153 2555,-153 2762.0993,-153 2762.0993,-153"/>
<polygon fill="#000000" stroke="#000000" points="2762.0994,-156.5001 2772.0993,-153 2762.0993,-149.5001 2762.0994,-156.5001"/>
</g>
<!-- AppRoutingModule -->
<g id="node24" class="node">
<title>AppRoutingModule</title>
<polygon fill="#8dd3c7" stroke="#000000" points="2483.2744,-122 2480.2744,-126 2459.2744,-126 2456.2744,-122 2354.7256,-122 2354.7256,-86 2483.2744,-86 2483.2744,-122"/>
<text text-anchor="middle" x="2419" y="-99.8" font-family="Times,serif" font-size="14.00" fill="#000000">AppRoutingModule</text>
</g>
<!-- AppRoutingModule&#45;&gt;AppModule -->
<g id="edge23" class="edge">
<title>AppRoutingModule&#45;&gt;AppModule</title>
<path fill="none" stroke="#000000" d="M2419,-122.1243C2419,-136.7832 2419,-155 2419,-155 2419,-155 2762.102,-155 2762.102,-155"/>
<polygon fill="#000000" stroke="#000000" points="2762.1021,-158.5001 2772.102,-155 2762.102,-151.5001 2762.1021,-158.5001"/>
</g>
<!-- AngularFontAwesomeModule -->
<g id="node25" class="node">
<title>AngularFontAwesomeModule</title>
<polygon fill="#8dd3c7" stroke="#000000" points="2336.573,-122 2333.573,-126 2312.573,-126 2309.573,-122 2149.427,-122 2149.427,-86 2336.573,-86 2336.573,-122"/>
<text text-anchor="middle" x="2243" y="-99.8" font-family="Times,serif" font-size="14.00" fill="#000000">AngularFontAwesomeModule</text>
</g>
<!-- AngularFontAwesomeModule&#45;&gt;AppModule -->
<g id="edge24" class="edge">
<title>AngularFontAwesomeModule&#45;&gt;AppModule</title>
<path fill="none" stroke="#000000" d="M2274.1788,-122.2396C2274.1788,-137.5706 2274.1788,-157 2274.1788,-157 2274.1788,-157 2762.0903,-157 2762.0903,-157"/>
<polygon fill="#000000" stroke="#000000" points="2762.0904,-160.5001 2772.0903,-157 2762.0903,-153.5001 2762.0904,-160.5001"/>
</g>
<!-- AngularFontAwesomeModule&#45;&gt;AppModule -->
<g id="edge26" class="edge">
<title>AngularFontAwesomeModule&#45;&gt;AppModule</title>
<path fill="none" stroke="#000000" d="M2211.8212,-122.0091C2211.8212,-138.0494 2211.8212,-159 2211.8212,-159 2211.8212,-159 2762.134,-159 2762.134,-159"/>
<polygon fill="#000000" stroke="#000000" points="2762.1341,-162.5001 2772.134,-159 2762.134,-155.5001 2762.1341,-162.5001"/>
</g>
<!-- HttpClientModule -->
<g id="node26" class="node">
<title>HttpClientModule</title>
<polygon fill="#8dd3c7" stroke="#000000" points="2131.1611,-122 2128.1611,-126 2107.1611,-126 2104.1611,-122 2012.8389,-122 2012.8389,-86 2131.1611,-86 2131.1611,-122"/>
<text text-anchor="middle" x="2072" y="-99.8" font-family="Times,serif" font-size="14.00" fill="#000000">HttpClientModule</text>
</g>
<!-- HttpClientModule&#45;&gt;AppModule -->
<g id="edge25" class="edge">
<title>HttpClientModule&#45;&gt;AppModule</title>
<path fill="none" stroke="#000000" d="M2072,-122.027C2072,-138.3976 2072,-160 2072,-160 2072,-160 2762.2493,-160 2762.2493,-160"/>
<polygon fill="#000000" stroke="#000000" points="2762.2493,-163.5001 2772.2493,-160 2762.2492,-156.5001 2762.2493,-163.5001"/>
</g>
<!-- MatButtonModule -->
<g id="node27" class="node">
<title>MatButtonModule</title>
<polygon fill="#8dd3c7" stroke="#000000" points="1995.2176,-122 1992.2176,-126 1971.2176,-126 1968.2176,-122 1874.7824,-122 1874.7824,-86 1995.2176,-86 1995.2176,-122"/>
<text text-anchor="middle" x="1935" y="-99.8" font-family="Times,serif" font-size="14.00" fill="#000000">MatButtonModule</text>
</g>
<!-- MatButtonModule&#45;&gt;AppModule -->
<g id="edge27" class="edge">
<title>MatButtonModule&#45;&gt;AppModule</title>
<path fill="none" stroke="#000000" d="M1935,-122.0336C1935,-139.0597 1935,-162 1935,-162 1935,-162 2762.1953,-162 2762.1953,-162"/>
<polygon fill="#000000" stroke="#000000" points="2762.1954,-165.5001 2772.1953,-162 2762.1953,-158.5001 2762.1954,-165.5001"/>
</g>
<!-- MatDividerModule -->
<g id="node28" class="node">
<title>MatDividerModule</title>
<polygon fill="#8dd3c7" stroke="#000000" points="1856.3627,-122 1853.3627,-126 1832.3627,-126 1829.3627,-122 1731.6373,-122 1731.6373,-86 1856.3627,-86 1856.3627,-122"/>
<text text-anchor="middle" x="1794" y="-99.8" font-family="Times,serif" font-size="14.00" fill="#000000">MatDividerModule</text>
</g>
<!-- MatDividerModule&#45;&gt;AppModule -->
<g id="edge28" class="edge">
<title>MatDividerModule&#45;&gt;AppModule</title>
<path fill="none" stroke="#000000" d="M1794,-122.002C1794,-139.6754 1794,-164 1794,-164 1794,-164 2762.1132,-164 2762.1132,-164"/>
<polygon fill="#000000" stroke="#000000" points="2762.1132,-167.5001 2772.1132,-164 2762.1132,-160.5001 2762.1132,-167.5001"/>
</g>
<!-- MatListModule -->
<g id="node29" class="node">
<title>MatListModule</title>
<polygon fill="#8dd3c7" stroke="#000000" points="1713.8781,-122 1710.8781,-126 1689.8781,-126 1686.8781,-122 1610.1219,-122 1610.1219,-86 1713.8781,-86 1713.8781,-122"/>
<text text-anchor="middle" x="1662" y="-99.8" font-family="Times,serif" font-size="14.00" fill="#000000">MatListModule</text>
</g>
<!-- MatListModule&#45;&gt;AppModule -->
<g id="edge29" class="edge">
<title>MatListModule&#45;&gt;AppModule</title>
<path fill="none" stroke="#000000" d="M1662,-122.2667C1662,-140.5552 1662,-166 1662,-166 1662,-166 2762.3191,-166 2762.3191,-166"/>
<polygon fill="#000000" stroke="#000000" points="2762.3192,-169.5001 2772.3191,-166 2762.3191,-162.5001 2762.3192,-169.5001"/>
</g>
<!-- MatToolbarModule -->
<g id="node30" class="node">
<title>MatToolbarModule</title>
<polygon fill="#8dd3c7" stroke="#000000" points="1592.4187,-122 1589.4187,-126 1568.4187,-126 1565.4187,-122 1465.5813,-122 1465.5813,-86 1592.4187,-86 1592.4187,-122"/>
<text text-anchor="middle" x="1529" y="-99.8" font-family="Times,serif" font-size="14.00" fill="#000000">MatToolbarModule</text>
</g>
<!-- MatToolbarModule&#45;&gt;AppModule -->
<g id="edge30" class="edge">
<title>MatToolbarModule&#45;&gt;AppModule</title>
<path fill="none" stroke="#000000" d="M1529,-122.1686C1529,-141.0898 1529,-168 1529,-168 1529,-168 2762.3394,-168 2762.3394,-168"/>
<polygon fill="#000000" stroke="#000000" points="2762.3395,-171.5001 2772.3394,-168 2762.3394,-164.5001 2762.3395,-171.5001"/>
</g>
<!-- MatCardModule -->
<g id="node31" class="node">
<title>MatCardModule</title>
<polygon fill="#8dd3c7" stroke="#000000" points="1447.8118,-122 1444.8118,-126 1423.8118,-126 1420.8118,-122 1338.1882,-122 1338.1882,-86 1447.8118,-86 1447.8118,-122"/>
<text text-anchor="middle" x="1393" y="-99.8" font-family="Times,serif" font-size="14.00" fill="#000000">MatCardModule</text>
</g>
<!-- MatCardModule&#45;&gt;AppModule -->
<g id="edge31" class="edge">
<title>MatCardModule&#45;&gt;AppModule</title>
<path fill="none" stroke="#000000" d="M1393,-122.1061C1393,-141.3391 1393,-169 1393,-169 1393,-169 2762.2417,-169 2762.2417,-169"/>
<polygon fill="#000000" stroke="#000000" points="2762.2418,-172.5001 2772.2417,-169 2762.2417,-165.5001 2762.2418,-172.5001"/>
</g>
<!-- MatIconModule -->
<g id="node32" class="node">
<title>MatIconModule</title>
<polygon fill="#8dd3c7" stroke="#000000" points="1320.4748,-122 1317.4748,-126 1296.4748,-126 1293.4748,-122 1213.5252,-122 1213.5252,-86 1320.4748,-86 1320.4748,-122"/>
<text text-anchor="middle" x="1267" y="-99.8" font-family="Times,serif" font-size="14.00" fill="#000000">MatIconModule</text>
</g>
<!-- MatIconModule&#45;&gt;AppModule -->
<g id="edge32" class="edge">
<title>MatIconModule&#45;&gt;AppModule</title>
<path fill="none" stroke="#000000" d="M1267,-122.308C1267,-142.1455 1267,-171 1267,-171 1267,-171 2762.2212,-171 2762.2212,-171"/>
<polygon fill="#000000" stroke="#000000" points="2762.2213,-174.5001 2772.2212,-171 2762.2212,-167.5001 2762.2213,-174.5001"/>
</g>
<!-- ModalModule.forRoot() -->
<g id="node33" class="node">
<title>ModalModule.forRoot()</title>
<polygon fill="#8dd3c7" stroke="#000000" points="1195.4699,-122 1192.4699,-126 1171.4699,-126 1168.4699,-122 1042.5301,-122 1042.5301,-86 1195.4699,-86 1195.4699,-122"/>
<text text-anchor="middle" x="1119" y="-99.8" font-family="Times,serif" font-size="14.00" fill="#000000">ModalModule.forRoot()</text>
</g>
<!-- ModalModule.forRoot()&#45;&gt;AppModule -->
<g id="edge33" class="edge">
<title>ModalModule.forRoot()&#45;&gt;AppModule</title>
<path fill="none" stroke="#000000" d="M1119,-122.1289C1119,-142.5724 1119,-173 1119,-173 1119,-173 2762.1009,-173 2762.1009,-173"/>
<polygon fill="#000000" stroke="#000000" points="2762.1009,-176.5001 2772.1009,-173 2762.1009,-169.5001 2762.1009,-176.5001"/>
</g>
<!-- BrowserAnimationsModule -->
<g id="node34" class="node">
<title>BrowserAnimationsModule</title>
<polygon fill="#8dd3c7" stroke="#000000" points="1025.3019,-122 1022.3019,-126 1001.3019,-126 998.3019,-122 852.6981,-122 852.6981,-86 1025.3019,-86 1025.3019,-122"/>
<text text-anchor="middle" x="939" y="-99.8" font-family="Times,serif" font-size="14.00" fill="#000000">BrowserAnimationsModule</text>
</g>
<!-- BrowserAnimationsModule&#45;&gt;AppModule -->
<g id="edge34" class="edge">
<title>BrowserAnimationsModule&#45;&gt;AppModule</title>
<path fill="none" stroke="#000000" d="M939,-122.2843C939,-143.3211 939,-175 939,-175 939,-175 2762.2091,-175 2762.2091,-175"/>
<polygon fill="#000000" stroke="#000000" points="2762.2091,-178.5001 2772.2091,-175 2762.209,-171.5001 2762.2091,-178.5001"/>
</g>
<!-- ReactiveFormsModule -->
<g id="node35" class="node">
<title>ReactiveFormsModule</title>
<polygon fill="#8dd3c7" stroke="#000000" points="835.3047,-122 832.3047,-126 811.3047,-126 808.3047,-122 690.6953,-122 690.6953,-86 835.3047,-86 835.3047,-122"/>
<text text-anchor="middle" x="763" y="-99.8" font-family="Times,serif" font-size="14.00" fill="#000000">ReactiveFormsModule</text>
</g>
<!-- ReactiveFormsModule&#45;&gt;AppModule -->
<g id="edge35" class="edge">
<title>ReactiveFormsModule&#45;&gt;AppModule</title>
<path fill="none" stroke="#000000" d="M763,-122.0449C763,-143.6623 763,-177 763,-177 763,-177 2762.1011,-177 2762.1011,-177"/>
<polygon fill="#000000" stroke="#000000" points="2762.1011,-180.5001 2772.1011,-177 2762.1011,-173.5001 2762.1011,-180.5001"/>
</g>
<!-- FormsModule -->
<g id="node36" class="node">
<title>FormsModule</title>
<polygon fill="#8dd3c7" stroke="#000000" points="672.8288,-122 669.8288,-126 648.8288,-126 645.8288,-122 577.1712,-122 577.1712,-86 672.8288,-86 672.8288,-122"/>
<text text-anchor="middle" x="625" y="-99.8" font-family="Times,serif" font-size="14.00" fill="#000000">FormsModule</text>
</g>
<!-- FormsModule&#45;&gt;AppModule -->
<g id="edge36" class="edge">
<title>FormsModule&#45;&gt;AppModule</title>
<path fill="none" stroke="#000000" d="M625,-122.2921C625,-144.2057 625,-178 625,-178 625,-178 2762.2265,-178 2762.2265,-178"/>
<polygon fill="#000000" stroke="#000000" points="2762.2265,-181.5001 2772.2265,-178 2762.2264,-174.5001 2762.2265,-181.5001"/>
</g>
<!-- MatButtonToggleModule -->
<g id="node37" class="node">
<title>MatButtonToggleModule</title>
<polygon fill="#8dd3c7" stroke="#000000" points="558.8752,-122 555.8752,-126 534.8752,-126 531.8752,-122 399.1248,-122 399.1248,-86 558.8752,-86 558.8752,-122"/>
<text text-anchor="middle" x="479" y="-99.8" font-family="Times,serif" font-size="14.00" fill="#000000">MatButtonToggleModule</text>
</g>
<!-- MatButtonToggleModule&#45;&gt;AppModule -->
<g id="edge37" class="edge">
<title>MatButtonToggleModule&#45;&gt;AppModule</title>
<path fill="none" stroke="#000000" d="M479,-122.0109C479,-144.4852 479,-180 479,-180 479,-180 2761.981,-180 2761.981,-180"/>
<polygon fill="#000000" stroke="#000000" points="2761.981,-183.5001 2771.981,-180 2761.9809,-176.5001 2761.981,-183.5001"/>
</g>
<!-- MatMenuModule -->
<g id="node38" class="node">
<title>MatMenuModule</title>
<polygon fill="#8dd3c7" stroke="#000000" points="381.2591,-122 378.2591,-126 357.2591,-126 354.2591,-122 266.7409,-122 266.7409,-86 381.2591,-86 381.2591,-122"/>
<text text-anchor="middle" x="324" y="-99.8" font-family="Times,serif" font-size="14.00" fill="#000000">MatMenuModule</text>
</g>
<!-- MatMenuModule&#45;&gt;AppModule -->
<g id="edge38" class="edge">
<title>MatMenuModule&#45;&gt;AppModule</title>
<path fill="none" stroke="#000000" d="M324,-122.0908C324,-145.1328 324,-182 324,-182 324,-182 2762.0855,-182 2762.0855,-182"/>
<polygon fill="#000000" stroke="#000000" points="2762.0855,-185.5001 2772.0855,-182 2762.0854,-178.5001 2762.0855,-185.5001"/>
</g>
<!-- MatTabsModule -->
<g id="node39" class="node">
<title>MatTabsModule</title>
<polygon fill="#8dd3c7" stroke="#000000" points="248.8118,-122 245.8118,-126 224.8118,-126 221.8118,-122 139.1882,-122 139.1882,-86 248.8118,-86 248.8118,-122"/>
<text text-anchor="middle" x="194" y="-99.8" font-family="Times,serif" font-size="14.00" fill="#000000">MatTabsModule</text>
</g>
<!-- MatTabsModule&#45;&gt;AppModule -->
<g id="edge39" class="edge">
<title>MatTabsModule&#45;&gt;AppModule</title>
<path fill="none" stroke="#000000" d="M194,-122.1532C194,-145.7566 194,-184 194,-184 194,-184 2762.3171,-184 2762.3171,-184"/>
<polygon fill="#000000" stroke="#000000" points="2762.3171,-187.5001 2772.3171,-184 2762.317,-180.5001 2762.3171,-187.5001"/>
</g>
<!-- RouterModule -->
<g id="node40" class="node">
<title>RouterModule</title>
<polygon fill="#8dd3c7" stroke="#000000" points="121.6528,-122 118.6528,-126 97.6528,-126 94.6528,-122 24.3472,-122 24.3472,-86 121.6528,-86 121.6528,-122"/>
<text text-anchor="middle" x="73" y="-99.8" font-family="Times,serif" font-size="14.00" fill="#000000">RouterModule</text>
</g>
<!-- RouterModule&#45;&gt;AppModule -->
<g id="edge40" class="edge">
<title>RouterModule&#45;&gt;AppModule</title>
<path fill="none" stroke="#000000" d="M73,-122.1985C73,-146.3563 73,-186 73,-186 73,-186 2762.3144,-186 2762.3144,-186"/>
<polygon fill="#000000" stroke="#000000" points="2762.3144,-189.5001 2772.3144,-186 2762.3144,-182.5001 2762.3144,-189.5001"/>
</g>
</g>
</svg>
