<?xml version="1.0" encoding="UTF-8" standalone="no"?>
<!DOCTYPE svg PUBLIC "-//W3C//DTD SVG 1.1//EN"
 "http://www.w3.org/Graphics/SVG/1.1/DTD/svg11.dtd">
<!-- Generated by graphviz version 2.40.1 (20161225.0304)
 -->
<!-- Title: dependencies Pages: 1 -->
<svg width="3751pt" height="290pt"
 viewBox="0.00 0.00 3751.00 290.00" xmlns="http://www.w3.org/2000/svg" xmlns:xlink="http://www.w3.org/1999/xlink">
<g id="graph0" class="graph" transform="scale(1 1) rotate(0) translate(4 286)">
<title>dependencies</title>
<polygon fill="#ffffff" stroke="transparent" points="-4,4 -4,-286 3747,-286 3747,4 -4,4"/>
<text text-anchor="start" x="1850.5091" y="-42.4" font-family="sans-serif" font-weight="bold" font-size="14.00" fill="#000000">Legend</text>
<polygon fill="#ffffb3" stroke="transparent" points="1637.5,-10 1637.5,-30 1657.5,-30 1657.5,-10 1637.5,-10"/>
<text text-anchor="start" x="1661.129" y="-15.4" font-family="sans-serif" font-size="14.00" fill="#000000"> &#160;Declarations</text>
<polygon fill="#8dd3c7" stroke="transparent" points="1750.5,-10 1750.5,-30 1770.5,-30 1770.5,-10 1750.5,-10"/>
<text text-anchor="start" x="1774.2251" y="-15.4" font-family="sans-serif" font-size="14.00" fill="#000000"> &#160;Module</text>
<polygon fill="#80b1d3" stroke="transparent" points="1836.5,-10 1836.5,-30 1856.5,-30 1856.5,-10 1836.5,-10"/>
<text text-anchor="start" x="1860.2812" y="-15.4" font-family="sans-serif" font-size="14.00" fill="#000000"> &#160;Bootstrap</text>
<polygon fill="#fdb462" stroke="transparent" points="1933.5,-10 1933.5,-30 1953.5,-30 1953.5,-10 1933.5,-10"/>
<text text-anchor="start" x="1957.1732" y="-15.4" font-family="sans-serif" font-size="14.00" fill="#000000"> &#160;Providers</text>
<polygon fill="#fb8072" stroke="transparent" points="2029.5,-10 2029.5,-30 2049.5,-30 2049.5,-10 2029.5,-10"/>
<text text-anchor="start" x="2053.2258" y="-15.4" font-family="sans-serif" font-size="14.00" fill="#000000"> &#160;Exports</text>
<g id="clust1" class="cluster">
<title>cluster_AppModule</title>
<polygon fill="none" stroke="#000000" stroke-dasharray="1,5" points="8,-70 8,-274 3391,-274 3391,-70 8,-70"/>
</g>
<g id="clust2" class="cluster">
<title>cluster_AppModule_declarations</title>
<polygon fill="none" stroke="#000000" points="16,-78 16,-130 1329,-130 1329,-78 16,-78"/>
</g>
<g id="clust12" class="cluster">
<title>cluster_AppModule_imports</title>
<polygon fill="none" stroke="#000000" points="1337,-78 1337,-130 3383,-130 3383,-78 1337,-78"/>
</g>
<g id="clust14" class="cluster">
<title>cluster_AppModule_bootstrap</title>
<polygon fill="none" stroke="#000000" points="1785,-214 1785,-266 1909,-266 1909,-214 1785,-214"/>
</g>
<g id="clust16" class="cluster">
<title>cluster_AppRoutingModule</title>
<polygon fill="none" stroke="#000000" stroke-dasharray="1,5" points="3399,-138 3399,-206 3735,-206 3735,-138 3399,-138"/>
</g>
<g id="clust18" class="cluster">
<title>cluster_AppRoutingModule_imports</title>
<polygon fill="none" stroke="#000000" points="3533,-146 3533,-198 3727,-198 3727,-146 3533,-146"/>
</g>
<g id="clust19" class="cluster">
<title>cluster_AppRoutingModule_exports</title>
<polygon fill="none" stroke="#000000" points="3407,-146 3407,-198 3525,-198 3525,-146 3407,-146"/>
</g>
<!-- AppComponent -->
<g id="node1" class="node">
<title>AppComponent</title>
<polygon fill="#ffffb3" stroke="#000000" points="1320.9399,-122 1215.0601,-122 1215.0601,-86 1320.9399,-86 1320.9399,-122"/>
<text text-anchor="middle" x="1268" y="-99.8" font-family="Times,serif" font-size="14.00" fill="#000000">AppComponent</text>
</g>
<!-- AppModule -->
<g id="node10" class="node">
<title>AppModule</title>
<polygon fill="#8dd3c7" stroke="#000000" points="1888.6571,-190 1885.6571,-194 1864.6571,-194 1861.6571,-190 1805.3429,-190 1805.3429,-154 1888.6571,-154 1888.6571,-190"/>
<text text-anchor="middle" x="1847" y="-167.8" font-family="Times,serif" font-size="14.00" fill="#000000">AppModule</text>
</g>
<!-- AppComponent&#45;&gt;AppModule -->
<g id="edge1" class="edge">
<title>AppComponent&#45;&gt;AppModule</title>
<path fill="none" stroke="#000000" d="M1268,-122.0225C1268,-139.3734 1268,-163 1268,-163 1268,-163 1794.8934,-163 1794.8934,-163"/>
<polygon fill="#000000" stroke="#000000" points="1794.8934,-166.5001 1804.8934,-163 1794.8933,-159.5001 1794.8934,-166.5001"/>
</g>
<!-- HeaderComponent -->
<g id="node2" class="node">
<title>HeaderComponent</title>
<polygon fill="#ffffb3" stroke="#000000" points="1196.7437,-122 1075.2563,-122 1075.2563,-86 1196.7437,-86 1196.7437,-122"/>
<text text-anchor="middle" x="1136" y="-99.8" font-family="Times,serif" font-size="14.00" fill="#000000">HeaderComponent</text>
</g>
<!-- HeaderComponent&#45;&gt;AppModule -->
<g id="edge2" class="edge">
<title>HeaderComponent&#45;&gt;AppModule</title>
<path fill="none" stroke="#000000" d="M1136,-122.2667C1136,-140.5552 1136,-166 1136,-166 1136,-166 1795.1781,-166 1795.1781,-166"/>
<polygon fill="#000000" stroke="#000000" points="1795.1782,-169.5001 1805.1781,-166 1795.1781,-162.5001 1795.1782,-169.5001"/>
</g>
<!-- DropdownDirective -->
<g id="node3" class="node">
<title>DropdownDirective</title>
<polygon fill="#ffffb3" stroke="#000000" points="1056.9566,-122 929.0434,-122 929.0434,-86 1056.9566,-86 1056.9566,-122"/>
<text text-anchor="middle" x="993" y="-99.8" font-family="Times,serif" font-size="14.00" fill="#000000">DropdownDirective</text>
</g>
<!-- DropdownDirective&#45;&gt;AppModule -->
<g id="edge3" class="edge">
<title>DropdownDirective&#45;&gt;AppModule</title>
<path fill="none" stroke="#000000" d="M993,-122.1061C993,-141.3391 993,-169 993,-169 993,-169 1795.2317,-169 1795.2317,-169"/>
<polygon fill="#000000" stroke="#000000" points="1795.2317,-172.5001 1805.2317,-169 1795.2317,-165.5001 1795.2317,-172.5001"/>
</g>
<!-- UserHeaderComponent -->
<g id="node4" class="node">
<title>UserHeaderComponent</title>
<polygon fill="#ffffb3" stroke="#000000" points="911.1699,-122 762.8301,-122 762.8301,-86 911.1699,-86 911.1699,-122"/>
<text text-anchor="middle" x="837" y="-99.8" font-family="Times,serif" font-size="14.00" fill="#000000">UserHeaderComponent</text>
</g>
<!-- UserHeaderComponent&#45;&gt;AppModule -->
<g id="edge4" class="edge">
<title>UserHeaderComponent&#45;&gt;AppModule</title>
<path fill="none" stroke="#000000" d="M837,-122.2228C837,-142.3652 837,-172 837,-172 837,-172 1795.2062,-172 1795.2062,-172"/>
<polygon fill="#000000" stroke="#000000" points="1795.2062,-175.5001 1805.2062,-172 1795.2061,-168.5001 1795.2062,-175.5001"/>
</g>
<!-- CommunityComponent -->
<g id="node5" class="node">
<title>CommunityComponent</title>
<polygon fill="#ffffb3" stroke="#000000" points="745.2316,-122 596.7684,-122 596.7684,-86 745.2316,-86 745.2316,-122"/>
<text text-anchor="middle" x="671" y="-99.8" font-family="Times,serif" font-size="14.00" fill="#000000">CommunityComponent</text>
</g>
<!-- CommunityComponent&#45;&gt;AppModule -->
<g id="edge5" class="edge">
<title>CommunityComponent&#45;&gt;AppModule</title>
<path fill="none" stroke="#000000" d="M671,-122.2843C671,-143.3211 671,-175 671,-175 671,-175 1795.1455,-175 1795.1455,-175"/>
<polygon fill="#000000" stroke="#000000" points="1795.1456,-178.5001 1805.1455,-175 1795.1455,-171.5001 1795.1456,-178.5001"/>
</g>
<!-- ProfileComponent -->
<g id="node6" class="node">
<title>ProfileComponent</title>
<polygon fill="#ffffb3" stroke="#000000" points="578.9328,-122 459.0672,-122 459.0672,-86 578.9328,-86 578.9328,-122"/>
<text text-anchor="middle" x="519" y="-99.8" font-family="Times,serif" font-size="14.00" fill="#000000">ProfileComponent</text>
</g>
<!-- ProfileComponent&#45;&gt;AppModule -->
<g id="edge6" class="edge">
<title>ProfileComponent&#45;&gt;AppModule</title>
<path fill="none" stroke="#000000" d="M519,-122.2921C519,-144.2057 519,-178 519,-178 519,-178 1795.0622,-178 1795.0622,-178"/>
<polygon fill="#000000" stroke="#000000" points="1795.0623,-181.5001 1805.0622,-178 1795.0622,-174.5001 1795.0623,-181.5001"/>
</g>
<!-- PostLayoutComponent -->
<g id="node7" class="node">
<title>PostLayoutComponent</title>
<polygon fill="#ffffb3" stroke="#000000" points="441.608,-122 296.392,-122 296.392,-86 441.608,-86 441.608,-122"/>
<text text-anchor="middle" x="369" y="-99.8" font-family="Times,serif" font-size="14.00" fill="#000000">PostLayoutComponent</text>
</g>
<!-- PostLayoutComponent&#45;&gt;AppModule -->
<g id="edge7" class="edge">
<title>PostLayoutComponent&#45;&gt;AppModule</title>
<path fill="none" stroke="#000000" d="M369,-122.2479C369,-145.0179 369,-181 369,-181 369,-181 1795.1471,-181 1795.1471,-181"/>
<polygon fill="#000000" stroke="#000000" points="1795.1472,-184.5001 1805.1471,-181 1795.1471,-177.5001 1795.1472,-184.5001"/>
</g>
<!-- LoginComponent -->
<g id="node8" class="node">
<title>LoginComponent</title>
<polygon fill="#ffffb3" stroke="#000000" points="278.2758,-122 163.7242,-122 163.7242,-86 278.2758,-86 278.2758,-122"/>
<text text-anchor="middle" x="221" y="-99.8" font-family="Times,serif" font-size="14.00" fill="#000000">LoginComponent</text>
</g>
<!-- LoginComponent&#45;&gt;AppModule -->
<g id="edge8" class="edge">
<title>LoginComponent&#45;&gt;AppModule</title>
<path fill="none" stroke="#000000" d="M221,-122.1532C221,-145.7566 221,-184 221,-184 221,-184 1795.1725,-184 1795.1725,-184"/>
<polygon fill="#000000" stroke="#000000" points="1795.1726,-187.5001 1805.1725,-184 1795.1725,-180.5001 1795.1726,-187.5001"/>
</g>
<!-- SignupComponent -->
<g id="node9" class="node">
<title>SignupComponent</title>
<polygon fill="#ffffb3" stroke="#000000" points="145.5056,-122 24.4944,-122 24.4944,-86 145.5056,-86 145.5056,-122"/>
<text text-anchor="middle" x="85" y="-99.8" font-family="Times,serif" font-size="14.00" fill="#000000">SignupComponent</text>
</g>
<!-- SignupComponent&#45;&gt;AppModule -->
<g id="edge9" class="edge">
<title>SignupComponent&#45;&gt;AppModule</title>
<path fill="none" stroke="#000000" d="M85,-122.0098C85,-146.4207 85,-187 85,-187 85,-187 1795.1826,-187 1795.1826,-187"/>
<polygon fill="#000000" stroke="#000000" points="1795.1826,-190.5001 1805.1826,-187 1795.1826,-183.5001 1795.1826,-190.5001"/>
</g>
<!-- AppComponent  -->
<g id="node25" class="node">
<title>AppComponent </title>
<polygon fill="#80b1d3" stroke="#000000" points="1901.439,-258 1792.561,-258 1792.561,-222 1901.439,-222 1901.439,-258"/>
<text text-anchor="middle" x="1847" y="-235.8" font-family="Times,serif" font-size="14.00" fill="#000000">AppComponent </text>
</g>
<!-- AppModule&#45;&gt;AppComponent  -->
<g id="edge25" class="edge">
<title>AppModule&#45;&gt;AppComponent </title>
<path fill="none" stroke="#000000" stroke-dasharray="1,5" d="M1847,-190.2228C1847,-190.2228 1847,-211.7269 1847,-211.7269"/>
<polygon fill="#000000" stroke="#000000" points="1843.5001,-211.7269 1847,-221.7269 1850.5001,-211.727 1843.5001,-211.7269"/>
</g>
<!-- BrowserModule -->
<g id="node11" class="node">
<title>BrowserModule</title>
<polygon fill="#8dd3c7" stroke="#000000" points="3228.4734,-122 3225.4734,-126 3204.4734,-126 3201.4734,-122 3121.5266,-122 3121.5266,-86 3228.4734,-86 3228.4734,-122"/>
<text text-anchor="middle" x="3175" y="-99.8" font-family="Times,serif" font-size="14.00" fill="#000000">BrowserModule</text>
</g>
<!-- BrowserModule&#45;&gt;AppModule -->
<g id="edge10" class="edge">
<title>BrowserModule&#45;&gt;AppModule</title>
<path fill="none" stroke="#000000" d="M3175,-122.1532C3175,-145.7566 3175,-184 3175,-184 3175,-184 1898.9378,-184 1898.9378,-184"/>
<polygon fill="#000000" stroke="#000000" points="1898.9378,-180.5001 1888.9378,-184 1898.9377,-187.5001 1898.9378,-180.5001"/>
</g>
<!-- AppRoutingModule -->
<g id="node12" class="node">
<title>AppRoutingModule</title>
<polygon fill="#8dd3c7" stroke="#000000" points="3375.2744,-122 3372.2744,-126 3351.2744,-126 3348.2744,-122 3246.7256,-122 3246.7256,-86 3375.2744,-86 3375.2744,-122"/>
<text text-anchor="middle" x="3311" y="-99.8" font-family="Times,serif" font-size="14.00" fill="#000000">AppRoutingModule</text>
</g>
<!-- AppRoutingModule&#45;&gt;AppModule -->
<g id="edge11" class="edge">
<title>AppRoutingModule&#45;&gt;AppModule</title>
<path fill="none" stroke="#000000" d="M3311,-122.0098C3311,-146.4207 3311,-187 3311,-187 3311,-187 1898.8453,-187 1898.8453,-187"/>
<polygon fill="#000000" stroke="#000000" points="1898.8453,-183.5001 1888.8453,-187 1898.8453,-190.5001 1898.8453,-183.5001"/>
</g>
<!-- RouterModule  -->
<g id="node27" class="node">
<title>RouterModule </title>
<polygon fill="#fb8072" stroke="#000000" points="3516.6523,-190 3415.3477,-190 3415.3477,-154 3516.6523,-154 3516.6523,-190"/>
<text text-anchor="middle" x="3466" y="-167.8" font-family="Times,serif" font-size="14.00" fill="#000000">RouterModule </text>
</g>
<!-- AppRoutingModule&#45;&gt;RouterModule  -->
<g id="edge27" class="edge">
<title>AppRoutingModule&#45;&gt;RouterModule </title>
<path fill="none" stroke="#000000" stroke-dasharray="5,2" d="M3375.3874,-110C3417.9734,-110 3466,-110 3466,-110 3466,-110 3466,-143.7333 3466,-143.7333"/>
<polygon fill="#000000" stroke="#000000" points="3462.5001,-143.7333 3466,-153.7333 3469.5001,-143.7333 3462.5001,-143.7333"/>
</g>
<!-- AngularFontAwesomeModule -->
<g id="node13" class="node">
<title>AngularFontAwesomeModule</title>
<polygon fill="#8dd3c7" stroke="#000000" points="2990.573,-122 2987.573,-126 2966.573,-126 2963.573,-122 2803.427,-122 2803.427,-86 2990.573,-86 2990.573,-122"/>
<text text-anchor="middle" x="2897" y="-99.8" font-family="Times,serif" font-size="14.00" fill="#000000">AngularFontAwesomeModule</text>
</g>
<!-- AngularFontAwesomeModule&#45;&gt;AppModule -->
<g id="edge12" class="edge">
<title>AngularFontAwesomeModule&#45;&gt;AppModule</title>
<path fill="none" stroke="#000000" d="M2865.8212,-122.2843C2865.8212,-143.3211 2865.8212,-175 2865.8212,-175 2865.8212,-175 1898.8384,-175 1898.8384,-175"/>
<polygon fill="#000000" stroke="#000000" points="1898.8384,-171.5001 1888.8384,-175 1898.8384,-178.5001 1898.8384,-171.5001"/>
</g>
<!-- AngularFontAwesomeModule&#45;&gt;AppModule -->
<g id="edge14" class="edge">
<title>AngularFontAwesomeModule&#45;&gt;AppModule</title>
<path fill="none" stroke="#000000" d="M2928.1788,-122.2921C2928.1788,-144.2057 2928.1788,-178 2928.1788,-178 2928.1788,-178 1898.721,-178 1898.721,-178"/>
<polygon fill="#000000" stroke="#000000" points="1898.721,-174.5001 1888.721,-178 1898.721,-181.5001 1898.721,-174.5001"/>
</g>
<!-- HttpClientModule -->
<g id="node14" class="node">
<title>HttpClientModule</title>
<polygon fill="#8dd3c7" stroke="#000000" points="2785.1611,-122 2782.1611,-126 2761.1611,-126 2758.1611,-122 2666.8389,-122 2666.8389,-86 2785.1611,-86 2785.1611,-122"/>
<text text-anchor="middle" x="2726" y="-99.8" font-family="Times,serif" font-size="14.00" fill="#000000">HttpClientModule</text>
</g>
<!-- HttpClientModule&#45;&gt;AppModule -->
<g id="edge13" class="edge">
<title>HttpClientModule&#45;&gt;AppModule</title>
<path fill="none" stroke="#000000" d="M2726,-122.2228C2726,-142.3652 2726,-172 2726,-172 2726,-172 1898.8047,-172 1898.8047,-172"/>
<polygon fill="#000000" stroke="#000000" points="1898.8047,-168.5001 1888.8047,-172 1898.8046,-175.5001 1898.8047,-168.5001"/>
</g>
<!-- MatButtonModule -->
<g id="node15" class="node">
<title>MatButtonModule</title>
<polygon fill="#8dd3c7" stroke="#000000" points="2649.2176,-122 2646.2176,-126 2625.2176,-126 2622.2176,-122 2528.7824,-122 2528.7824,-86 2649.2176,-86 2649.2176,-122"/>
<text text-anchor="middle" x="2589" y="-99.8" font-family="Times,serif" font-size="14.00" fill="#000000">MatButtonModule</text>
</g>
<!-- MatButtonModule&#45;&gt;AppModule -->
<g id="edge15" class="edge">
<title>MatButtonModule&#45;&gt;AppModule</title>
<path fill="none" stroke="#000000" d="M2589,-122.1061C2589,-141.3391 2589,-169 2589,-169 2589,-169 1898.7507,-169 1898.7507,-169"/>
<polygon fill="#000000" stroke="#000000" points="1898.7508,-165.5001 1888.7507,-169 1898.7507,-172.5001 1898.7508,-165.5001"/>
</g>
<!-- MatDividerModule -->
<g id="node16" class="node">
<title>MatDividerModule</title>
<polygon fill="#8dd3c7" stroke="#000000" points="2510.3627,-122 2507.3627,-126 2486.3627,-126 2483.3627,-122 2385.6373,-122 2385.6373,-86 2510.3627,-86 2510.3627,-122"/>
<text text-anchor="middle" x="2448" y="-99.8" font-family="Times,serif" font-size="14.00" fill="#000000">MatDividerModule</text>
</g>
<!-- MatDividerModule&#45;&gt;AppModule -->
<g id="edge16" class="edge">
<title>MatDividerModule&#45;&gt;AppModule</title>
<path fill="none" stroke="#000000" d="M2448,-122.2667C2448,-140.5552 2448,-166 2448,-166 2448,-166 1898.784,-166 1898.784,-166"/>
<polygon fill="#000000" stroke="#000000" points="1898.784,-162.5001 1888.784,-166 1898.784,-169.5001 1898.784,-162.5001"/>
</g>
<!-- MatListModule -->
<g id="node17" class="node">
<title>MatListModule</title>
<polygon fill="#8dd3c7" stroke="#000000" points="2367.8781,-122 2364.8781,-126 2343.8781,-126 2340.8781,-122 2264.1219,-122 2264.1219,-86 2367.8781,-86 2367.8781,-122"/>
<text text-anchor="middle" x="2316" y="-99.8" font-family="Times,serif" font-size="14.00" fill="#000000">MatListModule</text>
</g>
<!-- MatListModule&#45;&gt;AppModule -->
<g id="edge17" class="edge">
<title>MatListModule&#45;&gt;AppModule</title>
<path fill="none" stroke="#000000" d="M2316,-122.0225C2316,-139.3734 2316,-163 2316,-163 2316,-163 1899.0334,-163 1899.0334,-163"/>
<polygon fill="#000000" stroke="#000000" points="1899.0334,-159.5001 1889.0334,-163 1899.0333,-166.5001 1899.0334,-159.5001"/>
</g>
<!-- MatToolbarModule -->
<g id="node18" class="node">
<title>MatToolbarModule</title>
<polygon fill="#8dd3c7" stroke="#000000" points="2246.4187,-122 2243.4187,-126 2222.4187,-126 2219.4187,-122 2119.5813,-122 2119.5813,-86 2246.4187,-86 2246.4187,-122"/>
<text text-anchor="middle" x="2183" y="-99.8" font-family="Times,serif" font-size="14.00" fill="#000000">MatToolbarModule</text>
</g>
<!-- MatToolbarModule&#45;&gt;AppModule -->
<g id="edge18" class="edge">
<title>MatToolbarModule&#45;&gt;AppModule</title>
<path fill="none" stroke="#000000" d="M2183,-122.027C2183,-138.3976 2183,-160 2183,-160 2183,-160 1898.8753,-160 1898.8753,-160"/>
<polygon fill="#000000" stroke="#000000" points="1898.8753,-156.5001 1888.8753,-160 1898.8752,-163.5001 1898.8753,-156.5001"/>
</g>
<!-- MatCardModule -->
<g id="node19" class="node">
<title>MatCardModule</title>
<polygon fill="#8dd3c7" stroke="#000000" points="2101.8118,-122 2098.8118,-126 2077.8118,-126 2074.8118,-122 1992.1882,-122 1992.1882,-86 2101.8118,-86 2101.8118,-122"/>
<text text-anchor="middle" x="2047" y="-99.8" font-family="Times,serif" font-size="14.00" fill="#000000">MatCardModule</text>
</g>
<!-- MatCardModule&#45;&gt;AppModule -->
<g id="edge19" class="edge">
<title>MatCardModule&#45;&gt;AppModule</title>
<path fill="none" stroke="#000000" d="M2047,-122.2396C2047,-137.5706 2047,-157 2047,-157 2047,-157 1898.9266,-157 1898.9266,-157"/>
<polygon fill="#000000" stroke="#000000" points="1898.9266,-153.5001 1888.9266,-157 1898.9265,-160.5001 1898.9266,-153.5001"/>
</g>
<!-- MatIconModule -->
<g id="node20" class="node">
<title>MatIconModule</title>
<polygon fill="#8dd3c7" stroke="#000000" points="1974.4748,-122 1971.4748,-126 1950.4748,-126 1947.4748,-122 1867.5252,-122 1867.5252,-86 1974.4748,-86 1974.4748,-122"/>
<text text-anchor="middle" x="1921" y="-99.8" font-family="Times,serif" font-size="14.00" fill="#000000">MatIconModule</text>
</g>
<!-- MatIconModule&#45;&gt;AppModule -->
<g id="edge20" class="edge">
<title>MatIconModule&#45;&gt;AppModule</title>
<path fill="none" stroke="#000000" d="M1878.1704,-122.2228C1878.1704,-122.2228 1878.1704,-143.7269 1878.1704,-143.7269"/>
<polygon fill="#000000" stroke="#000000" points="1874.6705,-143.7269 1878.1704,-153.7269 1881.6705,-143.727 1874.6705,-143.7269"/>
</g>
<!-- ModalModule.forRoot() -->
<g id="node21" class="node">
<title>ModalModule.forRoot()</title>
<polygon fill="#8dd3c7" stroke="#000000" points="1849.4699,-122 1846.4699,-126 1825.4699,-126 1822.4699,-122 1696.5301,-122 1696.5301,-86 1849.4699,-86 1849.4699,-122"/>
<text text-anchor="middle" x="1773" y="-99.8" font-family="Times,serif" font-size="14.00" fill="#000000">ModalModule.forRoot()</text>
</g>
<!-- ModalModule.forRoot()&#45;&gt;AppModule -->
<g id="edge21" class="edge">
<title>ModalModule.forRoot()&#45;&gt;AppModule</title>
<path fill="none" stroke="#000000" d="M1827.2032,-122.2228C1827.2032,-122.2228 1827.2032,-143.7269 1827.2032,-143.7269"/>
<polygon fill="#000000" stroke="#000000" points="1823.7033,-143.7269 1827.2032,-153.7269 1830.7033,-143.727 1823.7033,-143.7269"/>
</g>
<!-- BrowserAnimationsModule -->
<g id="node22" class="node">
<title>BrowserAnimationsModule</title>
<polygon fill="#8dd3c7" stroke="#000000" points="1679.3019,-122 1676.3019,-126 1655.3019,-126 1652.3019,-122 1506.6981,-122 1506.6981,-86 1679.3019,-86 1679.3019,-122"/>
<text text-anchor="middle" x="1593" y="-99.8" font-family="Times,serif" font-size="14.00" fill="#000000">BrowserAnimationsModule</text>
</g>
<!-- BrowserAnimationsModule&#45;&gt;AppModule -->
<g id="edge22" class="edge">
<title>BrowserAnimationsModule&#45;&gt;AppModule</title>
<path fill="none" stroke="#000000" d="M1593,-122.2396C1593,-137.5706 1593,-157 1593,-157 1593,-157 1795.3415,-157 1795.3415,-157"/>
<polygon fill="#000000" stroke="#000000" points="1795.3415,-160.5001 1805.3415,-157 1795.3415,-153.5001 1795.3415,-160.5001"/>
</g>
<!-- ReactiveFormsModule -->
<g id="node23" class="node">
<title>ReactiveFormsModule</title>
<polygon fill="#8dd3c7" stroke="#000000" points="1489.3047,-122 1486.3047,-126 1465.3047,-126 1462.3047,-122 1344.6953,-122 1344.6953,-86 1489.3047,-86 1489.3047,-122"/>
<text text-anchor="middle" x="1417" y="-99.8" font-family="Times,serif" font-size="14.00" fill="#000000">ReactiveFormsModule</text>
</g>
<!-- ReactiveFormsModule&#45;&gt;AppModule -->
<g id="edge23" class="edge">
<title>ReactiveFormsModule&#45;&gt;AppModule</title>
<path fill="none" stroke="#000000" d="M1417,-122.027C1417,-138.3976 1417,-160 1417,-160 1417,-160 1794.9869,-160 1794.9869,-160"/>
<polygon fill="#000000" stroke="#000000" points="1794.9869,-163.5001 1804.9869,-160 1794.9868,-156.5001 1794.9869,-163.5001"/>
</g>
<!-- FormsModule -->
<g id="node24" class="node">
<title>FormsModule</title>
<polygon fill="#8dd3c7" stroke="#000000" points="3103.8288,-122 3100.8288,-126 3079.8288,-126 3076.8288,-122 3008.1712,-122 3008.1712,-86 3103.8288,-86 3103.8288,-122"/>
<text text-anchor="middle" x="3056" y="-99.8" font-family="Times,serif" font-size="14.00" fill="#000000">FormsModule</text>
</g>
<!-- FormsModule&#45;&gt;AppModule -->
<g id="edge24" class="edge">
<title>FormsModule&#45;&gt;AppModule</title>
<path fill="none" stroke="#000000" d="M3056,-122.2479C3056,-145.0179 3056,-181 3056,-181 3056,-181 1898.9676,-181 1898.9676,-181"/>
<polygon fill="#000000" stroke="#000000" points="1898.9676,-177.5001 1888.9676,-181 1898.9676,-184.5001 1898.9676,-177.5001"/>
</g>
<!-- RouterModule.forRoot(args) -->
<g id="node26" class="node">
<title>RouterModule.forRoot(args)</title>
<polygon fill="#8dd3c7" stroke="#000000" points="3718.8419,-190 3715.8419,-194 3694.8419,-194 3691.8419,-190 3541.1581,-190 3541.1581,-154 3718.8419,-154 3718.8419,-190"/>
<text text-anchor="middle" x="3630" y="-167.8" font-family="Times,serif" font-size="14.00" fill="#000000">RouterModule.forRoot(args)</text>
</g>
<!-- RouterModule.forRoot(args)&#45;&gt;AppRoutingModule -->
<g id="edge26" class="edge">
<title>RouterModule.forRoot(args)&#45;&gt;AppRoutingModule</title>
<path fill="none" stroke="#000000" d="M3630,-153.7079C3630,-131.7943 3630,-98 3630,-98 3630,-98 3385.5544,-98 3385.5544,-98"/>
<polygon fill="#000000" stroke="#000000" points="3385.5544,-94.5001 3375.5544,-98 3385.5544,-101.5001 3385.5544,-94.5001"/>
</g>
</g>
</svg>
