<?xml version="1.0" encoding="UTF-8" standalone="no"?>
<!DOCTYPE svg PUBLIC "-//W3C//DTD SVG 1.1//EN"
 "http://www.w3.org/Graphics/SVG/1.1/DTD/svg11.dtd">
<!-- Generated by graphviz version 2.40.1 (20161225.0304)
 -->
<!-- Title: dependencies Pages: 1 -->
<svg width="1504pt" height="284pt"
 viewBox="0.00 0.00 1504.00 284.00" xmlns="http://www.w3.org/2000/svg" xmlns:xlink="http://www.w3.org/1999/xlink">
<g id="graph0" class="graph" transform="scale(1 1) rotate(0) translate(4 280)">
<title>dependencies</title>
<polygon fill="#ffffff" stroke="transparent" points="-4,4 -4,-280 1500,-280 1500,4 -4,4"/>
<text text-anchor="start" x="727.0091" y="-42.4" font-family="sans-serif" font-weight="bold" font-size="14.00" fill="#000000">Legend</text>
<polygon fill="#ffffb3" stroke="transparent" points="514,-10 514,-30 534,-30 534,-10 514,-10"/>
<text text-anchor="start" x="537.629" y="-15.4" font-family="sans-serif" font-size="14.00" fill="#000000"> &#160;Declarations</text>
<polygon fill="#8dd3c7" stroke="transparent" points="627,-10 627,-30 647,-30 647,-10 627,-10"/>
<text text-anchor="start" x="650.7251" y="-15.4" font-family="sans-serif" font-size="14.00" fill="#000000"> &#160;Module</text>
<polygon fill="#80b1d3" stroke="transparent" points="713,-10 713,-30 733,-30 733,-10 713,-10"/>
<text text-anchor="start" x="736.7812" y="-15.4" font-family="sans-serif" font-size="14.00" fill="#000000"> &#160;Bootstrap</text>
<polygon fill="#fdb462" stroke="transparent" points="810,-10 810,-30 830,-30 830,-10 810,-10"/>
<text text-anchor="start" x="833.6732" y="-15.4" font-family="sans-serif" font-size="14.00" fill="#000000"> &#160;Providers</text>
<polygon fill="#fb8072" stroke="transparent" points="906,-10 906,-30 926,-30 926,-10 906,-10"/>
<text text-anchor="start" x="929.7258" y="-15.4" font-family="sans-serif" font-size="14.00" fill="#000000"> &#160;Exports</text>
<g id="clust1" class="cluster">
<title>cluster_AppModule</title>
<polygon fill="none" stroke="#000000" stroke-dasharray="1,5" points="8,-70 8,-268 1488,-268 1488,-70 8,-70"/>
</g>
<g id="clust2" class="cluster">
<title>cluster_AppModule_declarations</title>
<polygon fill="none" stroke="#000000" points="168,-78 168,-130 1480,-130 1480,-78 168,-78"/>
</g>
<g id="clust12" class="cluster">
<title>cluster_AppModule_imports</title>
<polygon fill="none" stroke="#000000" points="16,-78 16,-130 160,-130 160,-78 16,-78"/>
</g>
<g id="clust14" class="cluster">
<title>cluster_AppModule_bootstrap</title>
<polygon fill="none" stroke="#000000" points="703,-208 703,-260 827,-260 827,-208 703,-208"/>
</g>
<!-- AppComponent -->
<g id="node1" class="node">
<title>AppComponent</title>
<polygon fill="#ffffb3" stroke="#000000" points="1471.9399,-122 1366.0601,-122 1366.0601,-86 1471.9399,-86 1471.9399,-122"/>
<text text-anchor="middle" x="1419" y="-99.8" font-family="Times,serif" font-size="14.00" fill="#000000">AppComponent</text>
</g>
<!-- AppModule -->
<g id="node10" class="node">
<title>AppModule</title>
<polygon fill="#8dd3c7" stroke="#000000" points="806.6571,-187 803.6571,-191 782.6571,-191 779.6571,-187 723.3429,-187 723.3429,-151 806.6571,-151 806.6571,-187"/>
<text text-anchor="middle" x="765" y="-164.8" font-family="Times,serif" font-size="14.00" fill="#000000">AppModule</text>
</g>
<!-- AppComponent&#45;&gt;AppModule -->
<g id="edge1" class="edge">
<title>AppComponent&#45;&gt;AppModule</title>
<path fill="none" stroke="#000000" d="M1419,-122.0109C1419,-144.4852 1419,-180 1419,-180 1419,-180 816.9055,-180 816.9055,-180"/>
<polygon fill="#000000" stroke="#000000" points="816.9056,-176.5001 806.9055,-180 816.9055,-183.5001 816.9056,-176.5001"/>
</g>
<!-- CommunityComponent -->
<g id="node2" class="node">
<title>CommunityComponent</title>
<polygon fill="#ffffb3" stroke="#000000" points="1348.2316,-122 1199.7684,-122 1199.7684,-86 1348.2316,-86 1348.2316,-122"/>
<text text-anchor="middle" x="1274" y="-99.8" font-family="Times,serif" font-size="14.00" fill="#000000">CommunityComponent</text>
</g>
<!-- CommunityComponent&#45;&gt;AppModule -->
<g id="edge2" class="edge">
<title>CommunityComponent&#45;&gt;AppModule</title>
<path fill="none" stroke="#000000" d="M1274,-122.1289C1274,-142.5724 1274,-173 1274,-173 1274,-173 817.0866,-173 817.0866,-173"/>
<polygon fill="#000000" stroke="#000000" points="817.0867,-169.5001 807.0866,-173 817.0866,-176.5001 817.0867,-169.5001"/>
</g>
<!-- DropdownDirective -->
<g id="node3" class="node">
<title>DropdownDirective</title>
<polygon fill="#ffffb3" stroke="#000000" points="1181.9566,-122 1054.0434,-122 1054.0434,-86 1181.9566,-86 1181.9566,-122"/>
<text text-anchor="middle" x="1118" y="-99.8" font-family="Times,serif" font-size="14.00" fill="#000000">DropdownDirective</text>
</g>
<!-- DropdownDirective&#45;&gt;AppModule -->
<g id="edge3" class="edge">
<title>DropdownDirective&#45;&gt;AppModule</title>
<path fill="none" stroke="#000000" d="M1118,-122.2667C1118,-140.5552 1118,-166 1118,-166 1118,-166 816.8799,-166 816.8799,-166"/>
<polygon fill="#000000" stroke="#000000" points="816.88,-162.5001 806.8799,-166 816.8799,-169.5001 816.88,-162.5001"/>
</g>
<!-- HeaderComponent -->
<g id="node4" class="node">
<title>HeaderComponent</title>
<polygon fill="#ffffb3" stroke="#000000" points="1035.7437,-122 914.2563,-122 914.2563,-86 1035.7437,-86 1035.7437,-122"/>
<text text-anchor="middle" x="975" y="-99.8" font-family="Times,serif" font-size="14.00" fill="#000000">HeaderComponent</text>
</g>
<!-- HeaderComponent&#45;&gt;AppModule -->
<g id="edge4" class="edge">
<title>HeaderComponent&#45;&gt;AppModule</title>
<path fill="none" stroke="#000000" d="M975,-122.0091C975,-138.0494 975,-159 975,-159 975,-159 816.7403,-159 816.7403,-159"/>
<polygon fill="#000000" stroke="#000000" points="816.7404,-155.5001 806.7403,-159 816.7403,-162.5001 816.7404,-155.5001"/>
</g>
<!-- LoginComponent -->
<g id="node5" class="node">
<title>LoginComponent</title>
<polygon fill="#ffffb3" stroke="#000000" points="896.2758,-122 781.7242,-122 781.7242,-86 896.2758,-86 896.2758,-122"/>
<text text-anchor="middle" x="839" y="-99.8" font-family="Times,serif" font-size="14.00" fill="#000000">LoginComponent</text>
</g>
<!-- LoginComponent&#45;&gt;AppModule -->
<g id="edge5" class="edge">
<title>LoginComponent&#45;&gt;AppModule</title>
<path fill="none" stroke="#000000" d="M794.2202,-122.1061C794.2202,-122.1061 794.2202,-140.991 794.2202,-140.991"/>
<polygon fill="#000000" stroke="#000000" points="790.7203,-140.9909 794.2202,-150.991 797.7203,-140.991 790.7203,-140.9909"/>
</g>
<!-- PostLayoutComponent -->
<g id="node6" class="node">
<title>PostLayoutComponent</title>
<polygon fill="#ffffb3" stroke="#000000" points="763.608,-122 618.392,-122 618.392,-86 763.608,-86 763.608,-122"/>
<text text-anchor="middle" x="691" y="-99.8" font-family="Times,serif" font-size="14.00" fill="#000000">PostLayoutComponent</text>
</g>
<!-- PostLayoutComponent&#45;&gt;AppModule -->
<g id="edge6" class="edge">
<title>PostLayoutComponent&#45;&gt;AppModule</title>
<path fill="none" stroke="#000000" d="M743.3629,-122.1061C743.3629,-122.1061 743.3629,-140.991 743.3629,-140.991"/>
<polygon fill="#000000" stroke="#000000" points="739.863,-140.9909 743.3629,-150.991 746.863,-140.991 739.863,-140.9909"/>
</g>
<!-- ProfileComponent -->
<g id="node7" class="node">
<title>ProfileComponent</title>
<polygon fill="#ffffb3" stroke="#000000" points="600.9328,-122 481.0672,-122 481.0672,-86 600.9328,-86 600.9328,-122"/>
<text text-anchor="middle" x="541" y="-99.8" font-family="Times,serif" font-size="14.00" fill="#000000">ProfileComponent</text>
</g>
<!-- ProfileComponent&#45;&gt;AppModule -->
<g id="edge7" class="edge">
<title>ProfileComponent&#45;&gt;AppModule</title>
<path fill="none" stroke="#000000" d="M541,-122.0091C541,-138.0494 541,-159 541,-159 541,-159 713.1301,-159 713.1301,-159"/>
<polygon fill="#000000" stroke="#000000" points="713.1301,-162.5001 723.1301,-159 713.13,-155.5001 713.1301,-162.5001"/>
</g>
<!-- SignupComponent -->
<g id="node8" class="node">
<title>SignupComponent</title>
<polygon fill="#ffffb3" stroke="#000000" points="463.5056,-122 342.4944,-122 342.4944,-86 463.5056,-86 463.5056,-122"/>
<text text-anchor="middle" x="403" y="-99.8" font-family="Times,serif" font-size="14.00" fill="#000000">SignupComponent</text>
</g>
<!-- SignupComponent&#45;&gt;AppModule -->
<g id="edge8" class="edge">
<title>SignupComponent&#45;&gt;AppModule</title>
<path fill="none" stroke="#000000" d="M403,-122.2667C403,-140.5552 403,-166 403,-166 403,-166 713.1204,-166 713.1204,-166"/>
<polygon fill="#000000" stroke="#000000" points="713.1204,-169.5001 723.1204,-166 713.1203,-162.5001 713.1204,-169.5001"/>
</g>
<!-- UserHeaderComponent -->
<g id="node9" class="node">
<title>UserHeaderComponent</title>
<polygon fill="#ffffb3" stroke="#000000" points="324.1699,-122 175.8301,-122 175.8301,-86 324.1699,-86 324.1699,-122"/>
<text text-anchor="middle" x="250" y="-99.8" font-family="Times,serif" font-size="14.00" fill="#000000">UserHeaderComponent</text>
</g>
<!-- UserHeaderComponent&#45;&gt;AppModule -->
<g id="edge9" class="edge">
<title>UserHeaderComponent&#45;&gt;AppModule</title>
<path fill="none" stroke="#000000" d="M250,-122.1289C250,-142.5724 250,-173 250,-173 250,-173 713.2916,-173 713.2916,-173"/>
<polygon fill="#000000" stroke="#000000" points="713.2917,-176.5001 723.2916,-173 713.2916,-169.5001 713.2917,-176.5001"/>
</g>
<!-- AppComponent  -->
<g id="node12" class="node">
<title>AppComponent </title>
<polygon fill="#80b1d3" stroke="#000000" points="819.439,-252 710.561,-252 710.561,-216 819.439,-216 819.439,-252"/>
<text text-anchor="middle" x="765" y="-229.8" font-family="Times,serif" font-size="14.00" fill="#000000">AppComponent </text>
</g>
<!-- AppModule&#45;&gt;AppComponent  -->
<g id="edge11" class="edge">
<title>AppModule&#45;&gt;AppComponent </title>
<path fill="none" stroke="#000000" stroke-dasharray="1,5" d="M765,-187.1061C765,-187.1061 765,-205.991 765,-205.991"/>
<polygon fill="#000000" stroke="#000000" points="761.5001,-205.9909 765,-215.991 768.5001,-205.991 761.5001,-205.9909"/>
</g>
<!-- AppRoutingModule -->
<g id="node11" class="node">
<title>AppRoutingModule</title>
<polygon fill="#8dd3c7" stroke="#000000" points="152.2744,-122 149.2744,-126 128.2744,-126 125.2744,-122 23.7256,-122 23.7256,-86 152.2744,-86 152.2744,-122"/>
<text text-anchor="middle" x="88" y="-99.8" font-family="Times,serif" font-size="14.00" fill="#000000">AppRoutingModule</text>
</g>
<!-- AppRoutingModule&#45;&gt;AppModule -->
<g id="edge10" class="edge">
<title>AppRoutingModule&#45;&gt;AppModule</title>
<path fill="none" stroke="#000000" d="M88,-122.0109C88,-144.4852 88,-180 88,-180 88,-180 713.1615,-180 713.1615,-180"/>
<polygon fill="#000000" stroke="#000000" points="713.1616,-183.5001 723.1615,-180 713.1615,-176.5001 713.1616,-183.5001"/>
</g>
</g>
</svg>
